<svg viewBox="0 0 224.097 63.55"><g><path d="M 74.122 33.502 A 20.173 20.173 0 0 0 74.411 33.062 A 8.449 8.449 0 0 0 74.683 34.229 A 7.271 7.271 0 0 0 74.849 34.702 A 6.134 6.134 0 0 0 75.83 36.389 Q 76.587 37.305 77.661 37.805 A 5.143 5.143 0 0 0 78.815 38.181 A 6.59 6.59 0 0 0 80.127 38.306 A 9.145 9.145 0 0 0 80.708 38.288 A 7.763 7.763 0 0 0 83.02 37.793 A 11.328 11.328 0 0 0 83.267 37.694 A 10.089 10.089 0 0 0 85.425 36.487 A 13.026 13.026 0 0 0 85.492 36.437 A 11.834 11.834 0 0 0 87.329 34.741 A 21.345 21.345 0 0 0 88.011 33.92 A 16.719 16.719 0 0 0 88.646 33.061 A 1581.31 1581.31 0 0 0 88.642 33.297 Q 88.628 34.271 88.618 34.997 A 502.122 502.122 0 0 0 88.611 35.523 Q 88.601 36.316 88.599 36.561 A 12.239 12.239 0 0 0 88.599 36.646 Q 88.599 37.069 88.713 37.35 A 0.886 0.886 0 0 0 88.94 37.683 Q 89.282 37.988 89.648 37.988 A 1.616 1.616 0 0 0 89.691 37.988 Q 89.837 37.984 89.962 37.953 A 0.876 0.876 0 0 0 90.283 37.805 A 1.533 1.533 0 0 0 90.401 37.708 A 1.679 1.679 0 0 0 90.698 37.341 A 2.289 2.289 0 0 0 90.955 36.743 A 211.803 211.803 0 0 1 91.037 36.438 A 165.386 165.386 0 0 1 91.113 36.157 A 23.82 23.82 0 0 1 91.364 35.239 A 31.533 31.533 0 0 1 91.675 34.241 A 25.36 25.36 0 0 1 92.468 32.153 A 22.024 22.024 0 0 1 93.457 30.139 A 13.978 13.978 0 0 1 93.877 29.433 A 11.237 11.237 0 0 1 94.592 28.43 A 7.403 7.403 0 0 1 95.161 27.797 A 5.434 5.434 0 0 1 95.825 27.234 Q 96.46 26.782 97.119 26.782 A 1.945 1.945 0 0 1 97.129 26.782 A 1.504 1.504 0 0 1 98.193 27.197 A 1.35 1.35 0 0 1 98.555 27.759 A 1.613 1.613 0 0 1 98.633 28.272 Q 98.633 29.028 98.291 29.675 A 3.825 3.825 0 0 1 97.997 30.145 A 4.451 4.451 0 0 1 97.339 30.859 Q 96.729 31.397 95.886 31.824 A 9.708 9.708 0 0 1 95.344 32.078 A 11.241 11.241 0 0 1 94.043 32.544 A 2.49 2.49 0 0 0 93.904 32.595 Q 93.777 32.646 93.673 32.706 A 1.233 1.233 0 0 0 93.469 32.849 Q 93.262 33.032 93.152 33.24 A 1.741 1.741 0 0 0 93.116 33.312 Q 93.038 33.477 93.018 33.618 A 4.046 4.046 0 0 0 93.013 33.651 Q 93 33.748 92.996 33.819 A 1.088 1.088 0 0 0 92.993 33.887 A 2.818 2.818 0 0 0 93.055 34.472 A 3.168 3.168 0 0 0 93.396 35.364 A 4.227 4.227 0 0 0 93.676 35.8 A 4.767 4.767 0 0 0 94.495 36.658 A 4.896 4.896 0 0 0 95.117 37.093 A 5.903 5.903 0 0 0 96.155 37.573 Q 97.119 37.915 98.218 37.915 Q 99.609 37.915 100.94 37.39 A 8.908 8.908 0 0 0 101.761 37.017 A 10.169 10.169 0 0 0 103.491 35.877 A 12.011 12.011 0 0 0 104.31 35.148 A 14.108 14.108 0 0 0 105.762 33.484 A 17.067 17.067 0 0 0 106.522 32.378 A 20.415 20.415 0 0 0 107.009 31.561 A 18.132 18.132 0 0 0 107.335 32.664 A 14.225 14.225 0 0 0 108.105 34.546 A 8.855 8.855 0 0 0 108.726 35.605 A 6.787 6.787 0 0 0 109.888 36.914 A 3.662 3.662 0 0 0 110.944 37.555 A 3.959 3.959 0 0 0 112.402 37.817 Q 113.355 37.817 114.197 37.415 A 6.651 6.651 0 0 0 114.253 37.388 A 7.078 7.078 0 0 0 115.784 36.365 Q 116.528 35.718 117.163 34.9 A 20.499 20.499 0 0 0 117.242 34.798 A 18.72 18.72 0 0 0 118.311 33.252 A 29.092 29.092 0 0 0 118.313 33.248 A 8.534 8.534 0 0 0 118.542 34.509 A 6.297 6.297 0 0 0 118.735 35.115 A 5.12 5.12 0 0 0 119.397 36.353 A 4.371 4.371 0 0 0 120.801 37.598 A 3.514 3.514 0 0 0 121.702 37.947 A 4.404 4.404 0 0 0 122.73 38.062 A 3.51 3.51 0 0 0 123.314 38.013 A 3.906 3.906 0 0 0 124.414 37.647 A 6.724 6.724 0 0 0 124.837 37.416 A 7.591 7.591 0 0 0 126.001 36.56 A 11.172 11.172 0 0 0 126.142 36.433 A 12.193 12.193 0 0 0 127.429 35.046 A 22.907 22.907 0 0 0 128.356 33.803 A 5.264 5.264 0 0 0 128.564 34.692 A 5.019 5.019 0 0 0 128.692 35.035 A 4.25 4.25 0 0 0 129.321 36.096 Q 129.81 36.694 130.505 37.024 A 3.3 3.3 0 0 0 131.097 37.237 A 3.834 3.834 0 0 0 132.056 37.354 A 3.874 3.874 0 0 0 133.028 37.228 A 4.776 4.776 0 0 0 134.07 36.816 A 5.472 5.472 0 0 0 135.815 35.352 A 100.493 100.493 0 0 0 135.776 36.835 A 130.237 130.237 0 0 0 135.754 38.452 A 482.182 482.182 0 0 1 135.718 41.846 A 18.389 18.389 0 0 0 135.316 42.302 A 20.704 20.704 0 0 0 133.826 44.287 A 29.86 29.86 0 0 0 132.178 47.095 A 34.886 34.886 0 0 0 130.798 50.11 A 35.522 35.522 0 0 0 130.721 50.304 A 32.489 32.489 0 0 0 129.736 53.174 A 27.393 27.393 0 0 0 129.53 53.925 A 24.062 24.062 0 0 0 129.065 56.116 A 19.161 19.161 0 0 0 128.906 57.326 A 14.84 14.84 0 0 0 128.833 58.765 Q 128.833 60.109 129.135 61.094 A 4.237 4.237 0 0 0 129.712 62.305 A 2.799 2.799 0 0 0 131.107 63.375 A 3.414 3.414 0 0 0 132.227 63.55 A 4.224 4.224 0 0 0 132.714 63.522 A 3.301 3.301 0 0 0 134.216 62.976 A 4.383 4.383 0 0 0 134.964 62.33 A 5.458 5.458 0 0 0 135.657 61.389 Q 136.255 60.376 136.633 58.997 A 20.326 20.326 0 0 0 136.9 57.905 A 24.926 24.926 0 0 0 137.231 55.994 A 35.629 35.629 0 0 0 137.333 55.171 A 40.919 40.919 0 0 0 137.537 52.576 A 76.216 76.216 0 0 0 137.622 48.95 A 242.897 242.897 0 0 0 137.616 47.192 A 187.11 187.11 0 0 0 137.598 45.581 A 193.821 193.821 0 0 1 137.573 42.505 Q 139.465 40.14 140.947 38.08 A 69.683 69.683 0 0 0 142.578 35.718 A 54.311 54.311 0 0 0 143.197 34.756 A 42.512 42.512 0 0 0 144.019 33.4 A 3251.404 3251.404 0 0 0 144.019 33.887 L 144.019 35.425 A 3.141 3.141 0 0 0 144.064 35.97 A 2.326 2.326 0 0 0 144.421 36.878 Q 144.673 37.251 145.063 37.392 A 1.522 1.522 0 0 0 145.581 37.476 A 1.149 1.149 0 0 0 145.88 37.434 Q 146.177 37.354 146.521 37.122 A 1.573 1.573 0 0 0 146.64 37.033 Q 147.104 36.651 147.559 35.742 A 138.695 138.695 0 0 1 147.586 35.688 Q 147.779 35.302 148.044 34.779 A 412.235 412.235 0 0 1 148.242 34.387 A 37.375 37.375 0 0 1 148.567 33.762 A 45.09 45.09 0 0 1 149.17 32.666 A 87.085 87.085 0 0 1 150.232 30.847 A 21.949 21.949 0 0 1 150.713 30.081 A 17.436 17.436 0 0 1 151.331 29.199 Q 151.648 28.776 151.949 28.446 A 6.362 6.362 0 0 1 152.38 28.015 A 3.289 3.289 0 0 1 152.443 27.96 Q 152.724 27.719 152.97 27.624 A 0.84 0.84 0 0 1 153.271 27.564 A 0.51 0.51 0 0 1 153.379 27.575 Q 153.582 27.618 153.748 27.832 Q 153.955 28.101 153.955 28.858 A 5.765 5.765 0 0 1 153.952 29.054 Q 153.944 29.284 153.918 29.578 Q 153.882 30.005 153.833 30.493 Q 153.784 30.982 153.748 31.482 A 14.616 14.616 0 0 0 153.725 31.849 A 11.988 11.988 0 0 0 153.711 32.422 A 10.995 10.995 0 0 0 153.713 32.636 A 12.1 12.1 0 0 0 153.845 34.18 A 5.934 5.934 0 0 0 153.928 34.621 A 5.003 5.003 0 0 0 154.358 35.816 Q 154.736 36.548 155.42 37.024 Q 155.869 37.336 156.506 37.444 A 4.342 4.342 0 0 0 157.227 37.5 Q 158.203 37.5 159.094 37.024 Q 159.985 36.548 160.754 35.803 Q 161.523 35.059 162.158 34.18 A 25.137 25.137 0 0 0 162.648 33.478 A 20.173 20.173 0 0 0 163.269 32.495 A 22.985 22.985 0 0 0 163.38 32.306 A 15.667 15.667 0 0 0 163.806 33.301 A 12.697 12.697 0 0 0 163.89 33.474 Q 164.806 35.327 166.089 36.377 A 4.655 4.655 0 0 0 169.116 37.476 A 3.586 3.586 0 0 0 170.923 36.987 A 7.299 7.299 0 0 0 171.082 36.894 A 7.855 7.855 0 0 0 172.522 35.767 Q 173.267 35.034 173.865 34.143 A 28.514 28.514 0 0 0 174.327 33.433 A 22.787 22.787 0 0 0 174.462 33.216 A 8.534 8.534 0 0 0 174.695 34.509 A 6.297 6.297 0 0 0 174.887 35.115 A 5.12 5.12 0 0 0 175.549 36.353 A 4.371 4.371 0 0 0 176.953 37.598 A 3.514 3.514 0 0 0 177.854 37.947 A 4.404 4.404 0 0 0 178.882 38.062 A 3.51 3.51 0 0 0 179.466 38.013 A 3.906 3.906 0 0 0 180.566 37.647 A 6.724 6.724 0 0 0 180.99 37.416 A 7.591 7.591 0 0 0 182.153 36.56 A 11.172 11.172 0 0 0 182.294 36.433 A 12.193 12.193 0 0 0 183.582 35.046 A 22.907 22.907 0 0 0 184.814 33.35 A 26.458 26.458 0 0 0 185.153 32.82 A 22.509 22.509 0 0 0 185.815 31.69 A 124.064 124.064 0 0 0 186.076 31.21 Q 186.199 30.982 186.308 30.778 A 60.262 60.262 0 0 0 186.524 30.368 A 0.911 0.911 0 0 0 186.563 30.295 A 0.722 0.722 0 0 0 186.6 30.206 A 43.156 43.156 0 0 1 186.986 29.306 Q 187.589 27.942 188.013 27.307 A 14.325 14.325 0 0 1 188.027 27.285 Q 188.457 26.643 188.684 26.459 A 0.373 0.373 0 0 1 188.794 26.392 A 0.226 0.226 0 0 1 188.829 26.428 Q 188.946 26.583 188.989 27.075 Q 189.038 27.637 189.038 28.247 Q 189.038 28.595 189.011 29.067 A 25.092 25.092 0 0 1 188.989 29.395 A 64.041 64.041 0 0 1 188.934 30.106 A 80.26 80.26 0 0 1 188.867 30.872 Q 188.794 31.665 188.721 32.471 A 118.658 118.658 0 0 1 188.647 33.249 A 95.456 95.456 0 0 1 188.574 33.972 Q 188.528 34.407 188.492 34.766 A 117.119 117.119 0 0 0 188.452 35.169 A 25.236 25.236 0 0 0 188.436 35.341 Q 188.412 35.604 188.406 35.749 A 2.11 2.11 0 0 0 188.403 35.84 A 2.737 2.737 0 0 0 188.405 35.938 Q 188.43 36.648 188.831 37.048 A 1.401 1.401 0 0 0 189.465 37.413 A 1.902 1.902 0 0 0 189.966 37.476 Q 190.479 37.476 190.967 37.122 A 1.542 1.542 0 0 0 191.105 37.008 Q 191.524 36.622 191.943 35.742 Q 192.126 35.339 192.413 34.779 A 45.865 45.865 0 0 1 192.615 34.387 A 73.318 73.318 0 0 1 193.06 33.548 A 86.801 86.801 0 0 1 193.542 32.666 A 39.242 39.242 0 0 1 194.617 30.847 A 27.495 27.495 0 0 1 195.114 30.081 A 21.466 21.466 0 0 1 195.74 29.199 Q 196.057 28.776 196.359 28.446 A 6.362 6.362 0 0 1 196.79 28.015 A 3.289 3.289 0 0 1 196.852 27.96 Q 197.133 27.719 197.379 27.624 A 0.84 0.84 0 0 1 197.681 27.564 Q 197.876 27.564 198.12 27.844 Q 198.364 28.125 198.364 28.906 A 12.343 12.343 0 0 1 198.361 29.201 A 14.407 14.407 0 0 1 198.328 29.883 A 21.83 21.83 0 0 1 198.23 30.908 Q 198.169 31.421 198.132 31.885 Q 198.096 32.349 198.096 32.715 Q 198.096 33.569 198.23 34.412 A 5.18 5.18 0 0 0 198.257 34.568 A 4.542 4.542 0 0 0 198.755 35.95 A 3.089 3.089 0 0 0 199.829 37.073 Q 200.513 37.5 201.611 37.5 A 3.833 3.833 0 0 0 203.479 37.012 Q 204.37 36.524 205.139 35.791 Q 205.908 35.059 206.543 34.168 A 29.701 29.701 0 0 0 206.758 33.862 A 5.264 5.264 0 0 0 206.958 34.692 A 5.019 5.019 0 0 0 207.086 35.035 A 4.25 4.25 0 0 0 207.715 36.096 Q 208.203 36.694 208.899 37.024 A 3.3 3.3 0 0 0 209.49 37.237 A 3.834 3.834 0 0 0 210.449 37.354 A 3.874 3.874 0 0 0 211.422 37.228 A 4.776 4.776 0 0 0 212.463 36.816 A 5.472 5.472 0 0 0 214.209 35.352 A 100.493 100.493 0 0 0 214.169 36.835 A 130.237 130.237 0 0 0 214.148 38.452 A 482.182 482.182 0 0 1 214.111 41.846 A 18.389 18.389 0 0 0 213.709 42.302 A 20.704 20.704 0 0 0 212.219 44.287 A 29.86 29.86 0 0 0 210.571 47.095 A 34.886 34.886 0 0 0 209.192 50.11 A 35.522 35.522 0 0 0 209.115 50.304 A 32.489 32.489 0 0 0 208.13 53.174 A 27.393 27.393 0 0 0 207.923 53.925 A 24.062 24.062 0 0 0 207.459 56.116 A 19.161 19.161 0 0 0 207.3 57.326 A 14.84 14.84 0 0 0 207.227 58.765 Q 207.227 60.109 207.528 61.094 A 4.237 4.237 0 0 0 208.105 62.305 A 2.799 2.799 0 0 0 209.5 63.375 A 3.414 3.414 0 0 0 210.62 63.55 A 4.224 4.224 0 0 0 211.108 63.522 A 3.301 3.301 0 0 0 212.61 62.976 A 4.383 4.383 0 0 0 213.357 62.33 A 5.458 5.458 0 0 0 214.05 61.389 Q 214.648 60.376 215.027 58.997 A 20.326 20.326 0 0 0 215.293 57.905 A 24.926 24.926 0 0 0 215.625 55.994 A 35.629 35.629 0 0 0 215.726 55.171 A 40.919 40.919 0 0 0 215.93 52.576 A 76.216 76.216 0 0 0 216.016 48.95 A 242.897 242.897 0 0 0 216.01 47.192 A 187.11 187.11 0 0 0 215.991 45.581 A 193.821 193.821 0 0 1 215.967 42.505 Q 217.859 40.14 219.341 38.08 A 69.683 69.683 0 0 0 220.972 35.718 A 54.311 54.311 0 0 0 221.591 34.756 Q 222.352 33.546 222.956 32.433 A 29.037 29.037 0 0 0 224.023 30.274 Q 224.097 30.103 224.097 29.932 A 0.89 0.89 0 0 0 224.027 29.582 A 0.984 0.984 0 0 0 223.828 29.285 A 0.881 0.881 0 0 0 223.491 29.062 A 1.003 1.003 0 0 0 223.145 29.004 A 1.031 1.031 0 0 0 223.078 29.006 A 0.841 0.841 0 0 0 222.668 29.138 Q 222.461 29.273 222.339 29.541 A 23.487 23.487 0 0 1 222.064 30.129 Q 220.222 33.932 215.967 39.478 A 387.176 387.176 0 0 1 215.994 37.766 A 328.401 328.401 0 0 1 216.028 36.145 A 1388.375 1388.375 0 0 0 216.038 35.71 Q 216.068 34.402 216.089 33.374 A 255.295 255.295 0 0 1 216.1 32.839 Q 216.113 32.28 216.125 31.847 A 81.572 81.572 0 0 1 216.138 31.458 Q 216.159 30.827 216.162 30.73 A 0.943 0.943 0 0 0 216.162 30.713 Q 216.162 30.347 215.93 30.054 A 0.737 0.737 0 0 0 215.569 29.802 A 0.941 0.941 0 0 0 215.283 29.761 Q 214.917 29.761 214.648 29.993 Q 214.38 30.225 214.331 30.566 A 11.641 11.641 0 0 1 214.308 30.726 Q 214.135 31.895 213.757 32.764 A 8.107 8.107 0 0 1 213.733 32.82 Q 213.548 33.237 213.336 33.588 A 4.964 4.964 0 0 1 212.817 34.302 A 5.439 5.439 0 0 1 212.75 34.377 Q 212.244 34.931 211.707 35.205 Q 211.438 35.342 211.182 35.415 A 2.043 2.043 0 0 1 210.62 35.498 A 2.622 2.622 0 0 1 210.089 35.447 A 1.655 1.655 0 0 1 209.033 34.778 A 2.38 2.38 0 0 1 208.848 34.471 Q 208.668 34.114 208.587 33.67 A 4.37 4.37 0 0 1 208.521 32.886 A 9.207 9.207 0 0 1 208.524 32.644 Q 208.541 32 208.649 31.436 A 5.285 5.285 0 0 1 209.033 30.212 A 6.787 6.787 0 0 1 209.471 29.406 A 5.221 5.221 0 0 1 210.303 28.394 A 5.671 5.671 0 0 1 210.64 28.102 A 4.753 4.753 0 0 1 211.938 27.356 Q 212.385 27.189 212.793 27.106 A 3.829 3.829 0 0 1 213.55 27.026 Q 214.038 27.026 214.392 27.124 Q 214.746 27.222 215.002 27.368 A 4.121 4.121 0 0 1 215.118 27.437 Q 215.209 27.493 215.285 27.547 A 1.998 1.998 0 0 1 215.417 27.649 A 10.38 10.38 0 0 0 215.489 27.709 Q 215.599 27.8 215.674 27.857 A 1.305 1.305 0 0 0 215.895 28.009 A 0.91 0.91 0 0 0 216.333 28.125 A 0.832 0.832 0 0 0 216.699 28.043 A 0.933 0.933 0 0 0 216.968 27.844 A 1.175 1.175 0 0 0 216.985 27.826 A 0.904 0.904 0 0 0 217.236 27.197 A 0.912 0.912 0 0 0 217.161 26.829 A 1.054 1.054 0 0 0 216.968 26.538 Q 216.946 26.517 216.757 26.346 A 99.623 99.623 0 0 0 216.699 26.294 Q 216.455 26.074 216.003 25.83 A 4.23 4.23 0 0 0 215.906 25.779 Q 215.691 25.67 215.437 25.571 A 7.466 7.466 0 0 0 214.917 25.391 Q 214.282 25.195 213.525 25.195 A 5.542 5.542 0 0 0 212.454 25.303 A 6.946 6.946 0 0 0 211.194 25.684 A 6.414 6.414 0 0 0 210.639 25.939 A 6.968 6.968 0 0 0 208.984 27.149 A 7.001 7.001 0 0 0 208.176 28.094 A 8.482 8.482 0 0 0 207.587 29.057 A 0.92 0.92 0 0 0 207.459 29.126 A 0.897 0.897 0 0 0 207.293 29.261 A 0.984 0.984 0 0 0 207.105 29.541 Q 206.836 30.176 206.287 31.201 A 14.391 14.391 0 0 1 206.182 31.393 A 15.718 15.718 0 0 1 204.993 33.215 A 11.061 11.061 0 0 1 204.706 33.58 A 9.629 9.629 0 0 1 203.369 34.924 A 3.635 3.635 0 0 1 202.73 35.349 A 2.528 2.528 0 0 1 201.563 35.645 A 2.156 2.156 0 0 1 201.474 35.643 Q 201.022 35.624 200.732 35.413 A 1.376 1.376 0 0 1 200.475 35.167 A 1.615 1.615 0 0 1 200.244 34.778 A 2.588 2.588 0 0 1 200.241 34.771 Q 200.073 34.371 200.012 33.838 A 9.094 9.094 0 0 1 199.986 33.566 A 10.255 10.255 0 0 1 199.951 32.715 A 12.645 12.645 0 0 1 199.956 32.358 A 15.29 15.29 0 0 1 199.988 31.726 A 629.367 629.367 0 0 1 200.061 30.689 A 111.007 111.007 0 0 1 200.098 30.191 A 91.902 91.902 0 0 1 200.134 29.724 A 13.844 13.844 0 0 0 200.154 29.455 Q 200.161 29.327 200.166 29.212 A 6.912 6.912 0 0 0 200.171 28.955 A 5.082 5.082 0 0 0 200.07 27.917 A 3.599 3.599 0 0 0 199.561 26.66 A 1.947 1.947 0 0 0 198.443 25.832 A 2.739 2.739 0 0 0 197.681 25.733 A 2.182 2.182 0 0 0 197.538 25.737 Q 196.966 25.775 196.326 26.111 Q 195.876 26.347 195.43 26.77 A 6.55 6.55 0 0 0 194.897 27.344 A 24.705 24.705 0 0 0 193.542 29.199 A 46.256 46.256 0 0 0 192.31 31.165 Q 191.724 32.153 191.211 33.118 A 62.353 62.353 0 0 0 190.729 34.042 A 46.307 46.307 0 0 0 190.308 34.888 Q 190.363 34.357 190.424 33.634 A 125.852 125.852 0 0 0 190.466 33.13 A 202.278 202.278 0 0 1 190.649 31.018 A 85.305 85.305 0 0 0 190.738 29.99 A 69.452 69.452 0 0 0 190.808 29.028 Q 190.854 28.333 190.865 27.911 A 9.316 9.316 0 0 0 190.869 27.661 A 5.962 5.962 0 0 0 190.759 26.514 A 4.512 4.512 0 0 0 190.697 26.239 A 3.851 3.851 0 0 0 190.417 25.488 A 2.336 2.336 0 0 0 190.365 25.389 A 1.969 1.969 0 0 0 189.795 24.744 A 1.441 1.441 0 0 0 189.301 24.517 A 1.87 1.87 0 0 0 188.843 24.463 A 1.476 1.476 0 0 0 188.731 24.467 Q 188.08 24.517 187.423 25.142 A 5.11 5.11 0 0 0 186.926 25.696 A 7.369 7.369 0 0 0 186.729 25.961 Q 186.141 26.787 185.504 28.112 A 31.492 31.492 0 0 0 184.863 29.541 A 1.242 1.242 0 0 0 184.822 29.672 A 35.609 35.609 0 0 1 184.293 30.676 A 28.539 28.539 0 0 1 183.374 32.239 A 23.498 23.498 0 0 1 183.324 32.317 Q 182.953 32.898 182.584 33.4 A 14.458 14.458 0 0 1 181.824 34.351 A 11.21 11.21 0 0 1 181.608 34.59 Q 181.286 34.938 180.97 35.216 A 6.129 6.129 0 0 1 180.322 35.718 Q 179.59 36.206 178.906 36.206 A 2.508 2.508 0 0 1 178.55 36.18 A 3.066 3.066 0 0 1 178.04 36.06 Q 177.588 35.913 177.185 35.474 A 2.269 2.269 0 0 1 177.002 35.245 Q 176.857 35.038 176.734 34.776 A 4.613 4.613 0 0 1 176.526 34.241 A 4.463 4.463 0 0 1 176.38 33.636 Q 176.322 33.304 176.295 32.913 A 10.845 10.845 0 0 1 176.27 32.153 A 34.197 34.197 0 0 1 176.285 31.155 A 44.603 44.603 0 0 1 176.331 30.066 A 77.09 77.09 0 0 1 176.398 28.961 A 65.207 65.207 0 0 1 176.477 27.918 Q 176.563 26.904 176.624 26.172 A 74.172 74.172 0 0 0 176.64 25.973 Q 176.675 25.54 176.682 25.369 A 1.796 1.796 0 0 0 176.685 25.293 Q 176.685 24.927 176.44 24.646 A 0.966 0.966 0 0 0 176.406 24.608 A 0.77 0.77 0 0 0 175.83 24.365 A 1.2 1.2 0 0 0 175.665 24.376 A 0.863 0.863 0 0 0 175.159 24.622 Q 174.902 24.878 174.854 25.22 A 56.05 56.05 0 0 0 174.493 29.242 A 0.822 0.822 0 0 0 174.475 29.263 A 1.098 1.098 0 0 0 174.292 29.566 Q 174.109 30.023 173.754 30.708 A 29.444 29.444 0 0 1 173.499 31.189 A 16.489 16.489 0 0 1 173.429 31.316 A 17.966 17.966 0 0 1 172.229 33.191 A 11.157 11.157 0 0 1 171.861 33.669 A 9.545 9.545 0 0 1 170.667 34.9 A 4.204 4.204 0 0 1 170.528 35.013 Q 170.228 35.248 169.927 35.392 A 2.202 2.202 0 0 1 168.97 35.62 Q 168.237 35.62 167.603 35.205 A 4.244 4.244 0 0 1 166.989 34.714 A 5.564 5.564 0 0 1 166.418 34.07 A 7.673 7.673 0 0 1 165.959 33.393 A 9.716 9.716 0 0 1 165.43 32.385 A 13.19 13.19 0 0 1 165.192 31.83 A 15.22 15.22 0 0 1 164.673 30.298 A 3.672 3.672 0 0 0 164.75 30.198 Q 165.111 29.713 165.552 28.821 A 17.732 17.732 0 0 0 165.689 28.536 Q 165.896 28.098 166.105 27.597 A 31.252 31.252 0 0 0 166.541 26.489 A 42.536 42.536 0 0 0 167.035 25.086 A 52.872 52.872 0 0 0 167.517 23.56 Q 167.993 21.973 168.372 20.3 A 36.727 36.727 0 0 0 168.97 16.943 A 27.836 27.836 0 0 0 169.104 15.707 A 22.841 22.841 0 0 0 169.189 13.77 L 169.189 13.501 L 181.567 13.501 A 1.239 1.239 0 0 0 181.669 13.497 A 0.949 0.949 0 0 0 182.227 13.269 A 0.743 0.743 0 0 0 182.452 12.933 A 0.917 0.917 0 0 0 182.495 12.647 A 1.064 1.064 0 0 0 182.492 12.562 A 0.762 0.762 0 0 0 182.227 12.024 A 0.922 0.922 0 0 0 181.907 11.843 A 1.089 1.089 0 0 0 181.567 11.792 L 169.092 11.792 A 13.971 13.971 0 0 0 168.99 11.051 A 11.02 11.02 0 0 0 168.811 10.181 A 5.581 5.581 0 0 0 168.618 9.557 A 4.173 4.173 0 0 0 168.311 8.911 A 3.033 3.033 0 0 0 168.099 8.598 A 2.413 2.413 0 0 0 167.542 8.069 A 1.721 1.721 0 0 0 167.05 7.84 A 2.058 2.058 0 0 0 166.48 7.764 Q 165.845 7.764 165.32 8.069 A 3.09 3.09 0 0 0 164.902 8.361 A 3.702 3.702 0 0 0 164.368 8.911 A 5.23 5.23 0 0 0 164.007 9.428 A 6.626 6.626 0 0 0 163.611 10.181 A 10.022 10.022 0 0 0 163.376 10.751 A 12.13 12.13 0 0 0 163.037 11.792 L 153.857 11.792 A 1.239 1.239 0 0 0 153.756 11.796 A 0.949 0.949 0 0 0 153.198 12.024 A 0.743 0.743 0 0 0 152.972 12.36 A 0.917 0.917 0 0 0 152.93 12.647 A 1.064 1.064 0 0 0 152.933 12.732 A 0.762 0.762 0 0 0 153.198 13.269 A 0.922 0.922 0 0 0 153.518 13.45 A 1.089 1.089 0 0 0 153.857 13.501 L 162.622 13.501 Q 162.378 14.722 162.231 16.003 A 51.04 51.04 0 0 0 162.196 16.323 A 46.415 46.415 0 0 0 162.012 18.494 Q 161.938 19.702 161.914 20.789 Q 161.899 21.468 161.893 22.037 A 64.236 64.236 0 0 0 161.89 22.681 A 38.319 38.319 0 0 0 161.983 25.402 A 30.231 30.231 0 0 0 162.378 28.613 A 25.83 25.83 0 0 0 162.441 28.949 A 21.678 21.678 0 0 0 162.613 29.765 A 26.522 26.522 0 0 1 162.545 29.905 Q 162.398 30.204 162.207 30.579 A 16.163 16.163 0 0 1 161.955 31.052 A 19.416 19.416 0 0 1 161.475 31.873 Q 161.06 32.544 160.547 33.215 A 12.433 12.433 0 0 1 160.402 33.402 A 11.108 11.108 0 0 1 159.473 34.436 A 6.412 6.412 0 0 1 159.03 34.832 A 5.051 5.051 0 0 1 158.325 35.315 A 2.85 2.85 0 0 1 157.986 35.478 A 2.229 2.229 0 0 1 157.153 35.645 A 1.567 1.567 0 0 1 156.838 35.614 A 1.093 1.093 0 0 1 156.323 35.364 A 1.571 1.571 0 0 1 156.061 35.063 A 1.891 1.891 0 0 1 155.847 34.631 A 3.953 3.953 0 0 1 155.713 34.149 A 5.239 5.239 0 0 1 155.627 33.606 A 10.955 10.955 0 0 1 155.566 32.446 A 18.698 18.698 0 0 1 155.57 32.065 A 16.553 16.553 0 0 1 155.676 30.481 A 26.748 26.748 0 0 0 155.686 30.396 Q 155.786 29.515 155.786 28.98 A 5.516 5.516 0 0 0 155.771 28.562 A 4.579 4.579 0 0 0 155.627 27.71 A 3.798 3.798 0 0 0 155.514 27.358 A 3.097 3.097 0 0 0 155.164 26.685 Q 154.858 26.245 154.382 25.989 A 2.07 2.07 0 0 0 153.832 25.789 A 2.668 2.668 0 0 0 153.271 25.733 A 2.182 2.182 0 0 0 153.129 25.737 Q 152.557 25.775 151.917 26.111 Q 151.466 26.347 151.021 26.77 A 6.55 6.55 0 0 0 150.488 27.344 A 22.347 22.347 0 0 0 150.4 27.454 A 24.421 24.421 0 0 0 149.121 29.224 Q 148.462 30.225 147.876 31.238 A 69.432 69.432 0 0 0 147.731 31.49 A 62.645 62.645 0 0 0 146.777 33.215 A 47.116 47.116 0 0 0 146.295 34.146 A 36.283 36.283 0 0 0 145.874 35.01 L 145.85 33.862 L 145.85 33.008 L 145.85 31.86 L 145.85 30.64 L 145.85 29.59 A 87.902 87.902 0 0 0 148.315 24.719 Q 149.487 22.217 150.366 19.58 Q 151.245 16.943 151.77 14.172 A 30.301 30.301 0 0 0 152.295 8.521 A 19.908 19.908 0 0 0 152.286 7.908 A 17.391 17.391 0 0 0 152.1 5.823 A 10.014 10.014 0 0 0 151.863 4.691 A 7.373 7.373 0 0 0 151.465 3.577 A 4.837 4.837 0 0 0 151.123 2.948 A 3.711 3.711 0 0 0 150.317 2.051 A 2.501 2.501 0 0 0 149.448 1.605 A 3.105 3.105 0 0 0 148.584 1.489 A 2.191 2.191 0 0 0 147.173 1.985 A 3.065 3.065 0 0 0 146.594 2.612 A 6.142 6.142 0 0 0 146.093 3.473 Q 145.629 4.428 145.288 5.798 Q 144.775 7.861 144.519 10.779 A 98.443 98.443 0 0 0 144.299 13.867 A 134.243 134.243 0 0 0 144.153 17.297 A 253.113 253.113 0 0 0 144.067 21.045 A 317.048 317.048 0 0 0 144.031 25.086 A 2810.312 2810.312 0 0 0 144.022 29.379 A 3251.404 3251.404 0 0 0 144.022 29.4 A 1.089 1.089 0 0 0 143.945 29.541 A 23.487 23.487 0 0 1 143.67 30.129 Q 141.828 33.932 137.573 39.478 A 387.176 387.176 0 0 1 137.601 37.766 A 328.401 328.401 0 0 1 137.634 36.145 A 1388.375 1388.375 0 0 0 137.644 35.71 Q 137.674 34.402 137.695 33.374 A 255.295 255.295 0 0 1 137.707 32.839 Q 137.719 32.28 137.732 31.847 A 81.572 81.572 0 0 1 137.744 31.458 Q 137.766 30.827 137.768 30.73 A 0.943 0.943 0 0 0 137.769 30.713 Q 137.769 30.347 137.537 30.054 A 0.737 0.737 0 0 0 137.175 29.802 A 0.941 0.941 0 0 0 136.89 29.761 Q 136.523 29.761 136.255 29.993 Q 135.986 30.225 135.938 30.566 A 11.641 11.641 0 0 1 135.915 30.726 Q 135.741 31.895 135.364 32.764 A 8.107 8.107 0 0 1 135.339 32.82 Q 135.154 33.237 134.942 33.588 A 4.964 4.964 0 0 1 134.424 34.302 A 5.439 5.439 0 0 1 134.357 34.377 Q 133.851 34.931 133.313 35.205 Q 133.044 35.342 132.789 35.415 A 2.043 2.043 0 0 1 132.227 35.498 A 2.622 2.622 0 0 1 131.696 35.447 A 1.655 1.655 0 0 1 130.64 34.778 A 2.38 2.38 0 0 1 130.455 34.471 Q 130.274 34.114 130.193 33.67 A 4.37 4.37 0 0 1 130.127 32.886 A 9.207 9.207 0 0 1 130.13 32.644 Q 130.147 32 130.255 31.436 A 5.285 5.285 0 0 1 130.64 30.212 A 6.787 6.787 0 0 1 131.077 29.406 A 5.221 5.221 0 0 1 131.909 28.394 A 5.671 5.671 0 0 1 132.246 28.102 A 4.753 4.753 0 0 1 133.545 27.356 Q 133.991 27.189 134.4 27.106 A 3.829 3.829 0 0 1 135.156 27.026 Q 135.645 27.026 135.999 27.124 Q 136.353 27.222 136.609 27.368 A 4.121 4.121 0 0 1 136.725 27.437 Q 136.815 27.493 136.891 27.547 A 1.998 1.998 0 0 1 137.024 27.649 A 10.38 10.38 0 0 0 137.095 27.709 Q 137.206 27.8 137.28 27.857 A 1.305 1.305 0 0 0 137.501 28.009 A 0.91 0.91 0 0 0 137.939 28.125 A 0.832 0.832 0 0 0 138.306 28.043 A 0.933 0.933 0 0 0 138.574 27.844 A 1.175 1.175 0 0 0 138.592 27.826 A 0.904 0.904 0 0 0 138.843 27.197 A 0.912 0.912 0 0 0 138.767 26.829 A 1.054 1.054 0 0 0 138.574 26.538 Q 138.553 26.517 138.363 26.346 A 99.623 99.623 0 0 0 138.306 26.294 Q 138.062 26.074 137.61 25.83 A 4.23 4.23 0 0 0 137.513 25.779 Q 137.297 25.67 137.044 25.571 A 7.466 7.466 0 0 0 136.523 25.391 Q 135.889 25.195 135.132 25.195 A 5.542 5.542 0 0 0 134.06 25.303 A 6.946 6.946 0 0 0 132.8 25.684 A 6.414 6.414 0 0 0 132.245 25.939 A 6.968 6.968 0 0 0 130.591 27.149 A 7.001 7.001 0 0 0 129.783 28.094 A 8.482 8.482 0 0 0 129.188 29.067 A 0.918 0.918 0 0 0 129.102 29.114 A 0.886 0.886 0 0 0 128.974 29.209 A 0.935 0.935 0 0 0 128.76 29.492 A 35.609 35.609 0 0 1 128.141 30.676 A 28.539 28.539 0 0 1 127.222 32.239 A 23.498 23.498 0 0 1 127.172 32.317 Q 126.8 32.898 126.431 33.4 A 14.458 14.458 0 0 1 125.671 34.351 A 11.21 11.21 0 0 1 125.456 34.59 Q 125.134 34.938 124.818 35.216 A 6.129 6.129 0 0 1 124.17 35.718 Q 123.438 36.206 122.754 36.206 A 2.508 2.508 0 0 1 122.397 36.18 A 3.066 3.066 0 0 1 121.887 36.06 Q 121.436 35.913 121.033 35.474 A 2.269 2.269 0 0 1 120.85 35.245 Q 120.704 35.038 120.582 34.776 A 4.613 4.613 0 0 1 120.374 34.241 A 4.463 4.463 0 0 1 120.228 33.636 Q 120.17 33.304 120.142 32.913 A 10.845 10.845 0 0 1 120.117 32.153 A 34.197 34.197 0 0 1 120.132 31.155 A 44.603 44.603 0 0 1 120.178 30.066 A 77.09 77.09 0 0 1 120.245 28.961 A 65.207 65.207 0 0 1 120.325 27.918 Q 120.41 26.904 120.471 26.172 A 74.172 74.172 0 0 0 120.488 25.973 Q 120.522 25.54 120.53 25.369 A 1.796 1.796 0 0 0 120.532 25.293 Q 120.532 24.927 120.288 24.646 A 0.966 0.966 0 0 0 120.253 24.608 A 0.77 0.77 0 0 0 119.678 24.365 A 1.2 1.2 0 0 0 119.513 24.376 A 0.863 0.863 0 0 0 119.006 24.622 Q 118.75 24.878 118.701 25.22 A 56.05 56.05 0 0 0 118.336 29.333 A 0.935 0.935 0 0 0 118.237 29.492 A 29.476 29.476 0 0 1 118.074 29.825 Q 117.88 30.216 117.617 30.721 A 95.037 95.037 0 0 1 117.346 31.238 A 18.138 18.138 0 0 1 116.016 33.374 A 11.469 11.469 0 0 1 115.714 33.773 A 9.962 9.962 0 0 1 114.355 35.193 Q 113.452 35.962 112.476 35.962 Q 111.035 35.962 110.01 34.192 A 10.349 10.349 0 0 1 109.354 32.818 Q 109.05 32.052 108.796 31.129 A 24.958 24.958 0 0 1 108.374 29.321 A 76.88 76.88 0 0 0 110.938 24.207 A 53.393 53.393 0 0 0 113.013 18.945 A 42.648 42.648 0 0 0 114.404 13.709 A 28.957 28.957 0 0 0 114.579 12.739 A 25.438 25.438 0 0 0 114.917 8.667 A 28.619 28.619 0 0 0 114.903 7.756 Q 114.859 6.362 114.673 5.322 Q 114.429 3.955 113.989 3.101 Q 113.787 2.707 113.54 2.414 A 2.458 2.458 0 0 0 112.903 1.868 A 2.702 2.702 0 0 0 112.428 1.648 A 2.947 2.947 0 0 0 111.45 1.489 A 2.327 2.327 0 0 0 110.307 1.784 A 2.954 2.954 0 0 0 109.619 2.319 A 5.297 5.297 0 0 0 109.353 2.615 Q 109.021 3.014 108.722 3.521 A 9.892 9.892 0 0 0 108.191 4.566 A 14.269 14.269 0 0 0 108.109 4.756 Q 107.825 5.428 107.578 6.201 A 23.395 23.395 0 0 0 107.117 7.861 A 37.626 37.626 0 0 0 106.901 8.815 A 43.2 43.2 0 0 0 106.372 11.841 A 55.65 55.65 0 0 0 105.945 16.138 A 75.464 75.464 0 0 0 105.886 17.227 A 67.867 67.867 0 0 0 105.811 20.386 Q 105.811 21.802 105.896 23.633 Q 105.981 25.464 106.226 27.405 A 34.516 34.516 0 0 0 106.472 29.05 A 0.918 0.918 0 0 0 106.348 29.114 A 0.809 0.809 0 0 0 106.142 29.294 A 1.011 1.011 0 0 0 106.006 29.517 A 23.492 23.492 0 0 1 105.373 30.77 Q 104.962 31.522 104.543 32.139 A 10.515 10.515 0 0 1 103.638 33.301 A 15.102 15.102 0 0 1 103.064 33.899 Q 102.158 34.792 101.331 35.266 A 8.428 8.428 0 0 1 100.756 35.568 Q 100.398 35.738 100.073 35.844 A 3.695 3.695 0 0 1 99.414 35.999 A 23.468 23.468 0 0 1 99.034 36.046 Q 98.673 36.088 98.43 36.102 A 3.783 3.783 0 0 1 98.218 36.108 A 5.01 5.01 0 0 1 97.904 36.099 A 4.137 4.137 0 0 1 96.069 35.559 Q 95.117 35.01 94.702 34.082 Q 95.801 33.74 96.838 33.203 A 9.9 9.9 0 0 0 97.157 33.031 A 8.694 8.694 0 0 0 98.682 31.946 Q 99.487 31.226 99.976 30.31 A 4.097 4.097 0 0 0 100.166 29.901 A 4.288 4.288 0 0 0 100.464 28.296 A 3.837 3.837 0 0 0 100.462 28.164 A 3.333 3.333 0 0 0 100.208 26.978 A 3.282 3.282 0 0 0 99.5 25.916 A 3.282 3.282 0 0 0 98.438 25.208 A 3.194 3.194 0 0 0 98.166 25.108 A 3.443 3.443 0 0 0 97.119 24.951 A 3.824 3.824 0 0 0 94.812 25.708 A 7.511 7.511 0 0 0 94.063 26.334 A 8.839 8.839 0 0 0 92.944 27.637 Q 92.114 28.809 91.504 30.188 A 28.57 28.57 0 0 0 91.061 31.245 A 22.999 22.999 0 0 0 90.503 32.813 Q 90.517 31.906 90.53 30.845 A 1327.07 1327.07 0 0 0 90.552 29.102 A 987.187 987.187 0 0 1 90.579 26.947 A 1146.154 1146.154 0 0 1 90.613 24.683 A 6035.423 6035.423 0 0 0 90.686 19.922 A 5902.219 5902.219 0 0 1 90.688 19.769 A 5430.106 5430.106 0 0 1 90.759 15.173 A 2404.714 2404.714 0 0 1 90.796 12.93 A 2015.647 2015.647 0 0 1 90.833 10.816 A 2446.55 2446.55 0 0 0 90.854 9.584 Q 90.877 8.284 90.894 7.227 Q 90.918 5.689 90.93 4.773 Q 90.941 3.972 90.942 3.834 A 3.408 3.408 0 0 0 90.942 3.809 A 1.177 1.177 0 0 0 90.936 3.683 A 0.855 0.855 0 0 0 90.674 3.137 A 0.907 0.907 0 0 0 90.38 2.947 A 0.983 0.983 0 0 0 90.015 2.881 A 0.876 0.876 0 0 0 89.641 2.964 A 1.107 1.107 0 0 0 89.38 3.137 A 0.857 0.857 0 0 0 89.17 3.407 A 0.849 0.849 0 0 0 89.087 3.784 Q 89.087 3.943 89.079 4.642 A 687.706 687.706 0 0 1 89.075 4.993 A 434.841 434.841 0 0 1 89.072 5.213 Q 89.063 5.906 89.05 6.842 A 1363 1363 0 0 1 89.038 7.605 Q 89.024 8.505 89.007 9.551 A 1841.56 1841.56 0 0 1 88.977 11.267 A 566.769 566.769 0 0 0 88.943 13.388 A 664.826 664.826 0 0 0 88.916 15.625 Q 88.892 17.92 88.843 20.337 A 534.426 534.426 0 0 0 88.837 20.639 A 492.196 492.196 0 0 0 88.77 25.037 A 648.432 648.432 0 0 1 88.742 27.258 A 547.383 547.383 0 0 1 88.711 29.244 A 0.748 0.748 0 0 0 88.55 29.492 A 0.697 0.697 0 0 1 88.545 29.507 Q 88.487 29.666 88.22 30.212 A 8.495 8.495 0 0 1 88.073 30.498 Q 87.82 30.97 87.439 31.555 A 16.317 16.317 0 0 1 86.887 32.349 A 21.977 21.977 0 0 1 86.23 33.191 A 9.825 9.825 0 0 1 86.186 33.245 A 10.536 10.536 0 0 1 84.595 34.79 A 8.892 8.892 0 0 1 82.544 35.999 A 5.807 5.807 0 0 1 81.897 36.229 A 6.402 6.402 0 0 1 80.103 36.475 A 4.347 4.347 0 0 1 79.344 36.411 A 3.212 3.212 0 0 1 78.333 36.06 Q 77.588 35.645 77.1 34.949 A 4.638 4.638 0 0 1 76.805 34.47 A 5.305 5.305 0 0 1 76.367 33.35 A 6.762 6.762 0 0 1 76.297 33.065 A 7.382 7.382 0 0 1 76.123 31.445 A 7.702 7.702 0 0 1 76.127 31.185 A 6.824 6.824 0 0 1 76.404 29.456 A 7.026 7.026 0 0 1 76.662 28.732 A 5.494 5.494 0 0 1 77.148 27.82 A 4.565 4.565 0 0 1 77.39 27.49 A 3.766 3.766 0 0 1 78.235 26.709 A 2.812 2.812 0 0 1 78.411 26.601 A 2.265 2.265 0 0 1 79.541 26.294 A 2.281 2.281 0 0 1 79.892 26.32 A 1.665 1.665 0 0 1 80.75 26.709 A 1.672 1.672 0 0 1 81.002 26.98 A 1.091 1.091 0 0 1 81.226 27.637 A 2.694 2.694 0 0 1 81.219 27.827 Q 81.202 28.066 81.14 28.235 Q 81.095 28.358 81.042 28.461 A 1.433 1.433 0 0 1 80.945 28.626 A 5.291 5.291 0 0 0 80.866 28.743 A 4.361 4.361 0 0 0 80.75 28.931 A 0.604 0.604 0 0 0 80.685 29.092 A 0.755 0.755 0 0 0 80.664 29.273 A 1.178 1.178 0 0 0 80.664 29.285 A 0.916 0.916 0 0 0 80.92 29.932 A 0.833 0.833 0 0 0 81.281 30.156 A 1.042 1.042 0 0 0 81.592 30.2 Q 81.86 30.2 82.129 29.993 A 1.692 1.692 0 0 0 82.397 29.731 A 2.268 2.268 0 0 0 82.605 29.431 A 3.137 3.137 0 0 0 82.778 29.088 A 4.009 4.009 0 0 0 82.947 28.613 A 3.25 3.25 0 0 0 83.023 28.286 A 3.793 3.793 0 0 0 83.081 27.612 A 2.492 2.492 0 0 0 83.045 27.191 A 2.843 2.843 0 0 0 82.825 26.489 Q 82.568 25.928 82.117 25.464 A 3.103 3.103 0 0 0 81.749 25.142 A 3.583 3.583 0 0 0 81.006 24.719 A 3.37 3.37 0 0 0 80.435 24.535 A 4.003 4.003 0 0 0 79.541 24.439 A 3.991 3.991 0 0 0 77.515 24.988 A 5.24 5.24 0 0 0 76.942 25.371 A 5.839 5.839 0 0 0 75.842 26.489 A 6.773 6.773 0 0 0 75.307 27.317 A 8.097 8.097 0 0 0 74.707 28.723 A 8.183 8.183 0 0 0 74.591 29.115 A 0.92 0.92 0 0 0 74.573 29.126 A 0.897 0.897 0 0 0 74.407 29.261 A 0.984 0.984 0 0 0 74.219 29.541 A 41.505 41.505 0 0 1 74.072 29.848 Q 73.9 30.203 73.682 30.64 A 16.472 16.472 0 0 1 73.43 31.123 A 19.717 19.717 0 0 1 72.949 31.958 A 17.23 17.23 0 0 1 72.034 33.313 Q 71.533 33.984 70.984 34.509 Q 70.435 35.034 69.861 35.352 A 2.824 2.824 0 0 1 69.6 35.479 A 2.277 2.277 0 0 1 68.701 35.669 Q 67.798 35.669 67.285 35.059 A 3.801 3.801 0 0 1 66.986 34.65 A 4.261 4.261 0 0 1 66.516 33.618 A 8.004 8.004 0 0 1 66.187 31.946 A 76.507 76.507 0 0 1 66.155 31.572 Q 66.108 30.995 66.089 30.64 A 0.925 0.925 0 0 0 66.006 30.316 A 1.053 1.053 0 0 0 65.808 30.029 A 1.061 1.061 0 0 0 65.759 29.981 A 0.788 0.788 0 0 0 65.21 29.761 Q 64.844 29.761 64.575 29.993 Q 64.307 30.225 64.258 30.566 Q 64.087 31.836 63.66 32.764 Q 63.232 33.691 62.708 34.302 A 5.245 5.245 0 0 1 62.676 34.338 Q 62.166 34.921 61.609 35.205 Q 61.268 35.379 60.975 35.45 A 1.622 1.622 0 0 1 60.596 35.498 Q 60.31 35.498 60.066 35.444 A 1.689 1.689 0 0 1 59.57 35.254 A 1.897 1.897 0 0 1 58.911 34.619 A 2.501 2.501 0 0 1 58.894 34.592 A 2.616 2.616 0 0 1 58.569 33.753 Q 58.472 33.276 58.472 32.813 Q 58.472 31.323 58.948 30.237 A 6.989 6.989 0 0 1 59.346 29.459 A 5.424 5.424 0 0 1 60.132 28.43 A 5.275 5.275 0 0 1 60.402 28.173 A 4.435 4.435 0 0 1 61.694 27.368 A 5.181 5.181 0 0 1 62.423 27.135 A 3.825 3.825 0 0 1 63.306 27.026 A 4.765 4.765 0 0 1 63.322 27.026 Q 63.825 27.028 64.221 27.136 A 5.294 5.294 0 0 1 64.277 27.152 Q 64.645 27.257 64.917 27.393 A 4.233 4.233 0 0 1 65.07 27.473 Q 65.162 27.524 65.239 27.573 A 1.851 1.851 0 0 1 65.381 27.673 Q 65.514 27.778 65.573 27.831 A 0.684 0.684 0 0 1 65.601 27.857 A 0.909 0.909 0 0 0 65.872 28.046 A 0.936 0.936 0 0 0 66.26 28.125 A 0.832 0.832 0 0 0 66.626 28.043 A 0.933 0.933 0 0 0 66.895 27.844 A 1.175 1.175 0 0 0 66.912 27.826 A 0.904 0.904 0 0 0 67.163 27.197 A 0.902 0.902 0 0 0 67.062 26.787 A 1.277 1.277 0 0 0 66.895 26.538 Q 66.873 26.517 66.684 26.355 A 61.688 61.688 0 0 0 66.626 26.306 A 1.962 1.962 0 0 0 66.621 26.302 Q 66.377 26.096 65.93 25.855 Q 65.676 25.717 65.364 25.592 A 8.262 8.262 0 0 0 64.844 25.403 A 4.008 4.008 0 0 0 64.308 25.269 A 4.825 4.825 0 0 0 63.452 25.195 A 5.542 5.542 0 0 0 62.381 25.303 A 6.946 6.946 0 0 0 61.121 25.684 A 6.414 6.414 0 0 0 60.566 25.939 A 6.968 6.968 0 0 0 58.911 27.149 Q 57.91 28.125 57.263 29.578 A 7.221 7.221 0 0 0 56.758 31.249 A 9.556 9.556 0 0 0 56.616 32.935 A 6.087 6.087 0 0 0 56.636 33.43 A 5.076 5.076 0 0 0 56.897 34.692 Q 57.178 35.498 57.69 36.096 A 3.521 3.521 0 0 0 58.936 37.024 Q 59.668 37.354 60.571 37.354 A 3.475 3.475 0 0 0 61.943 37.061 A 4.916 4.916 0 0 0 62.866 36.536 Q 64.014 35.718 64.844 34.326 A 6.19 6.19 0 0 0 64.97 34.681 A 5.143 5.143 0 0 0 66.248 36.597 Q 67.212 37.5 68.628 37.5 Q 69.629 37.5 70.532 37.024 Q 71.436 36.548 72.217 35.816 A 11.155 11.155 0 0 0 73.633 34.204 A 25.137 25.137 0 0 0 74.122 33.502 Z M 33.984 21.704 L 33.423 21.704 A 2.107 2.107 0 0 1 33.229 21.696 A 1.707 1.707 0 0 1 33.105 21.68 A 34.242 34.242 0 0 1 30.949 26.012 A 27.138 27.138 0 0 1 28.918 28.98 A 29.665 29.665 0 0 1 26.085 32.104 A 24.026 24.026 0 0 1 23.743 34.07 Q 20.996 36.084 18.103 37.048 A 19.261 19.261 0 0 1 14.922 37.828 A 15.704 15.704 0 0 1 12.549 38.013 A 17.266 17.266 0 0 1 9.432 37.742 A 14.324 14.324 0 0 1 7.483 37.244 A 12.575 12.575 0 0 1 4.882 36.048 A 10.758 10.758 0 0 1 3.516 35.059 A 9.888 9.888 0 0 1 0.928 31.628 Q 0 29.614 0 27.124 A 14.619 14.619 0 0 1 0.473 23.5 A 18.071 18.071 0 0 1 1.013 21.765 A 22.023 22.023 0 0 1 2.466 18.621 A 28.418 28.418 0 0 1 4.028 16.138 A 30.555 30.555 0 0 1 8.252 11.316 A 33.941 33.941 0 0 1 13.123 7.568 A 36.479 36.479 0 0 1 18.384 4.81 A 43.084 43.084 0 0 1 23.433 3.023 A 39.523 39.523 0 0 1 23.767 2.93 A 39.211 39.211 0 0 1 28.031 2.006 A 35.145 35.145 0 0 1 28.992 1.868 A 40.592 40.592 0 0 1 32.025 1.586 A 33.102 33.102 0 0 1 33.789 1.538 A 49.461 49.461 0 0 1 36.413 1.605 A 42.849 42.849 0 0 1 37.28 1.66 A 38.128 38.128 0 0 1 39.688 1.912 A 33.706 33.706 0 0 1 40.454 2.026 A 25.213 25.213 0 0 1 40.872 1.572 Q 41.326 1.092 41.669 0.792 A 5.447 5.447 0 0 1 41.87 0.623 Q 42.385 0.213 42.473 0.151 A 0.4 0.4 0 0 1 42.48 0.147 A 1.78 1.78 0 0 1 42.669 0.065 Q 42.847 0 42.993 0 A 1.012 1.012 0 0 1 43.604 0.195 A 0.631 0.631 0 0 1 43.867 0.657 A 0.908 0.908 0 0 1 43.872 0.757 A 1.145 1.145 0 0 1 43.778 1.225 A 1.104 1.104 0 0 1 43.53 1.575 A 231.515 231.515 0 0 1 43.344 1.754 Q 43.136 1.954 42.864 2.215 A 772.775 772.775 0 0 1 42.603 2.466 A 21.945 21.945 0 0 1 45.426 3.352 Q 46.866 3.922 47.996 4.655 A 10.436 10.436 0 0 1 49.438 5.774 A 7.139 7.139 0 0 1 51.801 10.928 A 8.71 8.71 0 0 1 51.807 11.231 A 9.3 9.3 0 0 1 51.642 13.015 A 7.395 7.395 0 0 1 51.221 14.429 A 8.115 8.115 0 0 1 49.622 16.919 A 10.511 10.511 0 0 1 47.421 18.686 A 11.776 11.776 0 0 1 47.253 18.787 A 16.741 16.741 0 0 1 44.385 20.117 A 24.188 24.188 0 0 1 46.088 20.658 Q 47.125 21.031 47.961 21.46 A 17.756 17.756 0 0 1 49.165 22.134 Q 49.77 22.506 50.27 22.891 A 10.339 10.339 0 0 1 50.452 23.035 A 9.719 9.719 0 0 1 51.282 23.783 Q 51.73 24.24 52.051 24.707 A 10.239 10.239 0 0 1 52.563 25.531 A 7.506 7.506 0 0 1 52.954 26.343 A 6.997 6.997 0 0 1 53.201 27.051 Q 53.305 27.415 53.351 27.751 A 4.283 4.283 0 0 1 53.357 27.795 Q 53.442 28.467 53.442 28.931 A 7.722 7.722 0 0 1 53.26 30.643 A 6.273 6.273 0 0 1 52.795 31.983 A 7.911 7.911 0 0 1 51.05 34.351 A 10.213 10.213 0 0 1 48.856 35.902 A 11.62 11.62 0 0 1 48.499 36.084 A 18.45 18.45 0 0 1 45.459 37.244 A 21.656 21.656 0 0 1 42.212 37.903 A 27.162 27.162 0 0 1 40.203 38.081 A 22.808 22.808 0 0 1 39.063 38.11 A 26.175 26.175 0 0 1 35.03 37.788 A 29.745 29.745 0 0 1 34.07 37.622 Q 31.494 37.134 28.857 36.035 Q 28.271 35.791 28.271 35.181 A 0.953 0.953 0 0 1 28.326 34.853 A 0.828 0.828 0 0 1 28.564 34.509 A 1.107 1.107 0 0 1 28.825 34.336 A 0.876 0.876 0 0 1 29.199 34.253 A 0.914 0.914 0 0 1 29.393 34.275 A 1.242 1.242 0 0 1 29.565 34.326 A 24.911 24.911 0 0 0 34.229 35.767 A 23.994 23.994 0 0 0 39.038 36.255 A 28.748 28.748 0 0 0 41.563 36.15 Q 42.809 36.04 43.885 35.814 A 15.188 15.188 0 0 0 44.702 35.62 A 16.581 16.581 0 0 0 46.487 35.038 Q 47.69 34.564 48.596 33.948 Q 50.122 32.91 50.855 31.604 Q 51.587 30.298 51.587 28.955 A 4.996 4.996 0 0 0 50.769 26.196 A 7.113 7.113 0 0 0 49.557 24.783 A 9.426 9.426 0 0 0 48.45 23.926 Q 46.972 22.941 44.914 22.239 A 20.902 20.902 0 0 0 44.849 22.217 A 22.657 22.657 0 0 0 42.192 21.505 A 28.62 28.62 0 0 0 40.186 21.167 A 35.172 35.172 0 0 1 37.412 21.54 A 31.612 31.612 0 0 1 36.914 21.582 Q 35.327 21.704 33.984 21.704 Z M 39.111 3.711 Q 37.866 3.54 36.548 3.467 A 48.196 48.196 0 0 0 34.502 3.398 A 54.878 54.878 0 0 0 33.789 3.394 A 32.729 32.729 0 0 0 30.999 3.518 A 39.573 39.573 0 0 0 29.224 3.711 A 37.53 37.53 0 0 0 25.058 4.507 A 42.155 42.155 0 0 0 24.268 4.712 A 39.302 39.302 0 0 0 19.796 6.217 A 43.237 43.237 0 0 0 19.153 6.482 A 34.9 34.9 0 0 0 14.148 9.094 A 31.671 31.671 0 0 0 9.521 12.647 Q 7.324 14.673 5.518 17.212 A 25.044 25.044 0 0 0 3.827 19.941 A 19.44 19.44 0 0 0 2.759 22.315 A 15.698 15.698 0 0 0 2.049 24.843 A 12.195 12.195 0 0 0 1.831 27.1 A 10.08 10.08 0 0 0 2.048 29.232 A 8.185 8.185 0 0 0 2.6 30.908 A 7.827 7.827 0 0 0 4.785 33.753 Q 6.201 34.912 8.179 35.535 A 13.42 13.42 0 0 0 10.883 36.077 A 16.789 16.789 0 0 0 12.549 36.157 A 14.671 14.671 0 0 0 15.852 35.766 A 18.09 18.09 0 0 0 17.529 35.291 Q 20.117 34.424 22.583 32.629 Q 25.049 30.835 27.271 28.088 A 25.972 25.972 0 0 0 29.711 24.461 A 33.02 33.02 0 0 0 31.152 21.558 A 1.662 1.662 0 0 1 30.622 21.467 A 2.253 2.253 0 0 1 30.249 21.301 A 0.896 0.896 0 0 1 29.94 21.031 Q 29.819 20.857 29.793 20.621 A 1.23 1.23 0 0 1 29.785 20.483 A 0.944 0.944 0 0 1 29.859 20.101 Q 29.958 19.876 30.187 19.728 A 1.249 1.249 0 0 1 30.347 19.641 A 3.181 3.181 0 0 1 30.713 19.504 Q 31.12 19.376 31.719 19.274 A 14.68 14.68 0 0 1 32.105 19.214 Q 32.764 17.212 33.447 15.21 Q 34.131 13.208 34.961 11.255 A 50.257 50.257 0 0 1 36.792 7.41 A 30.358 30.358 0 0 1 39.111 3.711 Z M 40.21 19.312 A 23.953 23.953 0 0 0 41.996 18.914 A 26.886 26.886 0 0 0 42.419 18.799 A 19.363 19.363 0 0 0 44.641 18.03 Q 45.728 17.578 46.704 16.956 Q 47.681 16.333 48.401 15.491 Q 49.121 14.649 49.548 13.599 A 5.686 5.686 0 0 0 49.905 12.249 A 7.424 7.424 0 0 0 49.976 11.206 A 5.411 5.411 0 0 0 48.176 7.092 A 7.252 7.252 0 0 0 47.705 6.69 Q 46.04 5.382 43.311 4.574 A 24.523 24.523 0 0 0 41.187 4.053 A 26.633 26.633 0 0 0 39.369 6.612 A 30.464 30.464 0 0 0 38.892 7.398 A 42.917 42.917 0 0 0 36.914 11.194 A 49.156 49.156 0 0 0 35.291 15.173 A 41.896 41.896 0 0 0 34.388 17.999 A 36.079 36.079 0 0 0 34.106 19.067 A 20.528 20.528 0 0 1 34.576 19.049 A 16.061 16.061 0 0 1 35.01 19.043 L 35.718 19.043 A 33.886 33.886 0 0 1 36.713 19.058 A 43.493 43.493 0 0 1 37.793 19.104 A 37.312 37.312 0 0 1 38.959 19.186 A 46.48 46.48 0 0 1 40.21 19.312 Z M 107.666 20.508 A 60.999 60.999 0 0 0 107.707 22.783 A 54.065 54.065 0 0 0 107.739 23.511 A 68.867 68.867 0 0 0 107.877 25.603 A 60.522 60.522 0 0 0 107.935 26.27 A 53.183 53.183 0 0 0 109.418 23.159 A 60.187 60.187 0 0 0 109.888 22.058 Q 110.815 19.824 111.523 17.542 A 41.142 41.142 0 0 0 112.659 13.001 A 24.615 24.615 0 0 0 113.035 10.126 A 20.776 20.776 0 0 0 113.086 8.691 A 28.675 28.675 0 0 0 113.057 7.353 Q 112.97 5.499 112.622 4.566 Q 112.253 3.574 111.682 3.372 A 0.908 0.908 0 0 0 111.377 3.32 A 0.826 0.826 0 0 0 110.935 3.456 Q 110.673 3.619 110.422 3.979 A 3.301 3.301 0 0 0 110.388 4.028 A 5.543 5.543 0 0 0 110.047 4.617 Q 109.76 5.185 109.497 5.957 Q 109.14 7.006 108.838 8.38 A 34.012 34.012 0 0 0 108.74 8.838 A 41.25 41.25 0 0 0 108.356 11.009 A 49.636 49.636 0 0 0 108.167 12.402 A 68.604 68.604 0 0 0 107.874 15.355 A 77.388 77.388 0 0 0 107.8 16.382 Q 107.666 18.457 107.666 20.508 Z M 145.874 26.001 A 92.985 92.985 0 0 0 147.309 22.694 A 83.364 83.364 0 0 0 147.742 21.619 A 44.499 44.499 0 0 0 149.182 17.358 Q 149.78 15.234 150.122 13.049 A 29.056 29.056 0 0 0 150.459 9.085 A 32.348 32.348 0 0 0 150.464 8.496 A 12.572 12.572 0 0 0 150.462 8.272 Q 150.455 7.892 150.427 7.251 Q 150.391 6.397 150.208 5.518 A 5.88 5.88 0 0 0 149.96 4.652 A 4.57 4.57 0 0 0 149.646 3.98 Q 149.268 3.32 148.584 3.32 A 0.808 0.808 0 0 0 148.062 3.518 Q 147.842 3.697 147.656 4.041 Q 147.266 4.761 146.973 5.994 A 20.563 20.563 0 0 0 146.735 7.15 Q 146.594 7.942 146.484 8.862 A 63.447 63.447 0 0 0 146.25 11.204 A 74.519 74.519 0 0 0 146.167 12.329 A 107.803 107.803 0 0 0 145.984 16.089 Q 145.923 18.018 145.898 19.837 A 281.813 281.813 0 0 0 145.88 21.597 A 229.679 229.679 0 0 0 145.874 23.242 L 145.874 26.001 Z M 135.718 44.824 Q 134.57 46.411 133.643 48.279 A 32.02 32.02 0 0 0 132.056 52.051 A 28.894 28.894 0 0 0 131.266 54.732 A 25.011 25.011 0 0 0 131.042 55.75 Q 130.726 57.355 130.692 58.657 A 11.816 11.816 0 0 0 130.688 58.96 A 8.454 8.454 0 0 0 130.704 59.489 Q 130.738 60.031 130.847 60.4 A 3.682 3.682 0 0 0 130.965 60.741 Q 131.086 61.038 131.238 61.231 A 1.449 1.449 0 0 0 131.43 61.433 Q 131.563 61.546 131.709 61.605 A 0.888 0.888 0 0 0 131.75 61.621 A 1.888 1.888 0 0 0 132.006 61.691 A 1.397 1.397 0 0 0 132.275 61.719 A 1.699 1.699 0 0 0 133.469 61.235 A 2.324 2.324 0 0 0 133.594 61.108 Q 134.09 60.569 134.453 59.715 A 7.366 7.366 0 0 0 134.546 59.485 A 11.233 11.233 0 0 0 134.9 58.395 Q 135.056 57.822 135.177 57.174 A 18.238 18.238 0 0 0 135.181 57.153 A 28.508 28.508 0 0 0 135.547 54.431 A 54.206 54.206 0 0 0 135.718 51.636 A 83.532 83.532 0 0 0 135.754 50.299 A 64.517 64.517 0 0 0 135.767 49.072 L 135.767 46.973 A 48.402 48.402 0 0 0 135.718 44.824 Z M 214.111 44.824 Q 212.964 46.411 212.036 48.279 A 32.02 32.02 0 0 0 210.449 52.051 A 28.894 28.894 0 0 0 209.659 54.732 A 25.011 25.011 0 0 0 209.436 55.75 Q 209.119 57.355 209.086 58.657 A 11.816 11.816 0 0 0 209.082 58.96 A 8.454 8.454 0 0 0 209.098 59.489 Q 209.132 60.031 209.241 60.4 A 3.682 3.682 0 0 0 209.358 60.741 Q 209.479 61.038 209.631 61.231 A 1.449 1.449 0 0 0 209.824 61.433 Q 209.956 61.546 210.102 61.605 A 0.888 0.888 0 0 0 210.144 61.621 A 1.888 1.888 0 0 0 210.399 61.691 A 1.397 1.397 0 0 0 210.669 61.719 A 1.699 1.699 0 0 0 211.862 61.235 A 2.324 2.324 0 0 0 211.987 61.108 Q 212.484 60.569 212.846 59.715 A 7.366 7.366 0 0 0 212.939 59.485 A 11.233 11.233 0 0 0 213.293 58.395 Q 213.45 57.822 213.57 57.174 A 18.238 18.238 0 0 0 213.574 57.153 A 28.508 28.508 0 0 0 213.94 54.431 A 54.206 54.206 0 0 0 214.111 51.636 A 83.532 83.532 0 0 0 214.148 50.299 A 64.517 64.517 0 0 0 214.16 49.072 L 214.16 46.973 A 48.402 48.402 0 0 0 214.111 44.824 Z M 167.358 13.501 L 164.478 13.501 A 21.032 21.032 0 0 0 164.24 14.738 Q 164.149 15.295 164.071 15.923 A 43.199 43.199 0 0 0 163.928 17.249 Q 163.721 19.483 163.721 22.681 A 57.489 57.489 0 0 0 163.727 23.536 Q 163.745 24.765 163.818 25.671 A 22.011 22.011 0 0 0 163.94 26.822 A 16.385 16.385 0 0 0 164.111 27.857 A 30.619 30.619 0 0 0 165.095 25.408 A 35.732 35.732 0 0 0 165.442 24.378 A 43.797 43.797 0 0 0 166.467 20.606 Q 166.895 18.701 167.126 16.87 Q 167.358 15.039 167.358 13.501 Z M 121.978 18.943 A 2.188 2.188 0 0 0 122.217 17.92 Q 122.217 17.456 122.046 17.053 Q 121.875 16.65 121.57 16.345 Q 121.265 16.04 120.862 15.869 Q 120.459 15.698 119.995 15.698 Q 119.531 15.698 119.128 15.869 Q 118.726 16.04 118.42 16.345 Q 118.115 16.65 117.944 17.053 Q 117.773 17.456 117.773 17.92 A 2.641 2.641 0 0 0 117.774 17.949 A 2.14 2.14 0 0 0 118.42 19.495 A 2.235 2.235 0 0 0 118.972 19.903 A 2.188 2.188 0 0 0 119.995 20.142 A 2.641 2.641 0 0 0 120.024 20.142 A 2.14 2.14 0 0 0 121.57 19.495 A 2.235 2.235 0 0 0 121.978 18.943 Z M 178.13 18.943 A 2.188 2.188 0 0 0 178.369 17.92 Q 178.369 17.456 178.198 17.053 Q 178.027 16.65 177.722 16.345 Q 177.417 16.04 177.014 15.869 Q 176.611 15.698 176.147 15.698 Q 175.684 15.698 175.281 15.869 Q 174.878 16.04 174.573 16.345 Q 174.268 16.65 174.097 17.053 Q 173.926 17.456 173.926 17.92 A 2.641 2.641 0 0 0 173.926 17.949 A 2.14 2.14 0 0 0 174.573 19.495 A 2.235 2.235 0 0 0 175.124 19.903 A 2.188 2.188 0 0 0 176.147 20.142 A 2.641 2.641 0 0 0 176.176 20.142 A 2.14 2.14 0 0 0 177.722 19.495 A 2.235 2.235 0 0 0 178.13 18.943 Z M 164.917 11.792 L 167.261 11.792 Q 167.142 10.796 166.92 10.215 A 3.085 3.085 0 0 0 166.907 10.181 A 2.244 2.244 0 0 0 166.81 9.967 Q 166.615 9.595 166.382 9.595 A 0.313 0.313 0 0 0 166.252 9.628 Q 166.075 9.71 165.814 9.995 A 4.37 4.37 0 0 0 165.747 10.071 A 2.302 2.302 0 0 0 165.514 10.4 Q 165.215 10.897 164.917 11.792 Z M 120.85 17.92 A 0.815 0.815 0 0 0 120.61 17.338 A 1.071 1.071 0 0 0 120.593 17.322 A 0.893 0.893 0 0 0 120.33 17.136 A 0.803 0.803 0 0 0 119.995 17.066 A 0.777 0.777 0 0 0 119.426 17.305 A 0.997 0.997 0 0 0 119.409 17.322 Q 119.165 17.578 119.165 17.92 A 0.798 0.798 0 0 0 119.402 18.498 A 0.978 0.978 0 0 0 119.409 18.506 A 0.798 0.798 0 0 0 119.984 18.75 A 0.951 0.951 0 0 0 119.995 18.75 Q 120.337 18.75 120.593 18.506 A 0.83 0.83 0 0 0 120.786 18.237 A 0.783 0.783 0 0 0 120.85 17.92 Z M 177.002 17.92 A 0.815 0.815 0 0 0 176.762 17.338 A 1.071 1.071 0 0 0 176.746 17.322 A 0.893 0.893 0 0 0 176.482 17.136 A 0.803 0.803 0 0 0 176.147 17.066 A 0.777 0.777 0 0 0 175.578 17.305 A 0.997 0.997 0 0 0 175.562 17.322 Q 175.317 17.578 175.317 17.92 A 0.798 0.798 0 0 0 175.554 18.498 A 0.978 0.978 0 0 0 175.562 18.506 A 0.798 0.798 0 0 0 176.137 18.75 A 0.951 0.951 0 0 0 176.147 18.75 Q 176.489 18.75 176.746 18.506 A 0.83 0.83 0 0 0 176.938 18.237 A 0.783 0.783 0 0 0 177.002 17.92 Z M 164.502 29.639 L 164.502 29.614 L 164.502 29.639 Z" vector-effect="non-scaling-stroke"/></g></svg>