<svg viewBox="0 0 448.193 127.1"><g><path d="M 148.245 67.004 A 40.346 40.346 0 0 0 148.822 66.123 A 16.899 16.899 0 0 0 149.365 68.457 Q 150.147 70.947 151.66 72.778 Q 153.174 74.61 155.322 75.611 A 10.286 10.286 0 0 0 157.629 76.361 A 13.18 13.18 0 0 0 160.254 76.611 A 18.29 18.29 0 0 0 161.415 76.575 A 15.527 15.527 0 0 0 166.04 75.586 A 22.659 22.659 0 0 0 166.535 75.389 A 20.179 20.179 0 0 0 170.85 72.974 A 26.067 26.067 0 0 0 170.983 72.874 A 23.669 23.669 0 0 0 174.658 69.483 A 42.69 42.69 0 0 0 176.022 67.84 A 33.439 33.439 0 0 0 177.292 66.122 A 3181.804 3181.804 0 0 0 177.285 66.594 Q 177.255 68.542 177.235 69.994 A 1005.001 1005.001 0 0 0 177.222 71.045 A 1710.268 1710.268 0 0 0 177.215 71.589 Q 177.201 72.722 177.198 73.123 A 24.483 24.483 0 0 0 177.197 73.291 A 6.19 6.19 0 0 0 177.197 73.304 Q 177.2 74.759 177.881 75.366 Q 178.14 75.598 178.406 75.741 A 1.855 1.855 0 0 0 179.297 75.977 A 3.233 3.233 0 0 0 179.381 75.976 Q 180.105 75.957 180.566 75.611 A 3.065 3.065 0 0 0 180.801 75.415 A 3.358 3.358 0 0 0 181.397 74.683 A 4.579 4.579 0 0 0 181.909 73.486 A 423.85 423.85 0 0 1 182.074 72.876 A 330.459 330.459 0 0 1 182.227 72.315 A 47.641 47.641 0 0 1 182.727 70.477 A 63.066 63.066 0 0 1 183.35 68.482 Q 184.033 66.406 184.937 64.307 A 44.049 44.049 0 0 1 186.914 60.278 A 27.956 27.956 0 0 1 187.754 58.866 A 22.473 22.473 0 0 1 189.185 56.861 A 14.806 14.806 0 0 1 190.322 55.593 A 10.867 10.867 0 0 1 191.65 54.468 A 5.514 5.514 0 0 1 192.469 53.982 A 4.068 4.068 0 0 1 194.238 53.565 A 3.859 3.859 0 0 1 194.258 53.565 A 3.009 3.009 0 0 1 196.387 54.395 A 2.7 2.7 0 0 1 197.109 55.518 A 3.226 3.226 0 0 1 197.266 56.543 A 5.919 5.919 0 0 1 196.582 59.351 A 7.65 7.65 0 0 1 195.994 60.29 A 8.902 8.902 0 0 1 194.678 61.719 Q 193.457 62.793 191.772 63.648 A 19.417 19.417 0 0 1 190.689 64.155 A 22.483 22.483 0 0 1 188.086 65.088 Q 187.663 65.229 187.345 65.411 A 2.466 2.466 0 0 0 186.938 65.698 Q 186.523 66.065 186.304 66.48 A 3.481 3.481 0 0 0 186.232 66.623 Q 186.158 66.779 186.111 66.923 A 1.82 1.82 0 0 0 186.035 67.236 A 8.093 8.093 0 0 0 186.026 67.301 Q 185.986 67.597 185.986 67.774 A 5.635 5.635 0 0 0 186.109 68.945 A 6.336 6.336 0 0 0 186.792 70.728 A 8.453 8.453 0 0 0 187.353 71.599 A 9.533 9.533 0 0 0 188.989 73.316 A 9.793 9.793 0 0 0 190.234 74.186 A 11.806 11.806 0 0 0 192.31 75.147 A 11.485 11.485 0 0 0 193.166 75.413 A 12.547 12.547 0 0 0 196.436 75.83 A 14.716 14.716 0 0 0 201.88 74.78 Q 204.541 73.731 206.982 71.753 Q 209.424 69.776 211.523 66.968 A 34.134 34.134 0 0 0 213.043 64.756 A 40.829 40.829 0 0 0 214.017 63.123 A 36.264 36.264 0 0 0 214.669 65.329 A 28.449 28.449 0 0 0 216.211 69.092 A 17.71 17.71 0 0 0 217.452 71.209 A 13.575 13.575 0 0 0 219.775 73.828 A 7.323 7.323 0 0 0 221.887 75.11 A 7.919 7.919 0 0 0 224.805 75.635 A 8.213 8.213 0 0 0 228.394 74.829 A 13.31 13.31 0 0 0 228.505 74.775 A 14.157 14.157 0 0 0 231.567 72.73 A 20.582 20.582 0 0 0 234.326 69.8 A 41.023 41.023 0 0 0 234.484 69.595 A 37.44 37.44 0 0 0 236.621 66.504 A 58.183 58.183 0 0 0 236.626 66.496 A 17.067 17.067 0 0 0 237.085 69.019 A 12.594 12.594 0 0 0 237.47 70.23 A 10.239 10.239 0 0 0 238.794 72.705 Q 239.941 74.268 241.602 75.195 A 7.029 7.029 0 0 0 243.404 75.893 A 8.808 8.808 0 0 0 245.459 76.123 A 7.019 7.019 0 0 0 246.628 76.025 A 7.812 7.812 0 0 0 248.828 75.293 A 13.449 13.449 0 0 0 249.674 74.831 A 15.182 15.182 0 0 0 252.002 73.12 A 22.341 22.341 0 0 0 252.284 72.866 A 24.386 24.386 0 0 0 254.858 70.093 A 45.815 45.815 0 0 0 256.711 67.606 A 10.527 10.527 0 0 0 257.129 69.385 Q 257.666 70.996 258.643 72.193 Q 259.619 73.389 261.011 74.048 A 6.6 6.6 0 0 0 262.194 74.475 A 7.667 7.667 0 0 0 264.111 74.707 A 7.749 7.749 0 0 0 266.056 74.455 A 9.553 9.553 0 0 0 268.14 73.633 A 10.944 10.944 0 0 0 271.631 70.703 A 200.986 200.986 0 0 0 271.552 73.67 A 260.47 260.47 0 0 0 271.509 76.904 A 964.38 964.38 0 0 1 271.436 83.692 Q 269.434 85.889 267.651 88.574 Q 265.869 91.26 264.355 94.19 A 69.772 69.772 0 0 0 261.597 100.22 A 71.036 71.036 0 0 0 261.442 100.607 A 64.977 64.977 0 0 0 259.473 106.348 A 54.786 54.786 0 0 0 259.059 107.851 A 48.123 48.123 0 0 0 258.13 112.232 A 38.321 38.321 0 0 0 257.813 114.652 A 29.68 29.68 0 0 0 257.666 117.529 Q 257.666 120.219 258.27 122.187 A 8.474 8.474 0 0 0 259.424 124.61 A 5.599 5.599 0 0 0 262.214 126.75 A 6.829 6.829 0 0 0 264.453 127.1 Q 266.748 127.1 268.433 125.952 A 8.766 8.766 0 0 0 269.927 124.659 A 10.916 10.916 0 0 0 271.313 122.778 A 16.915 16.915 0 0 0 272.402 120.564 A 22.733 22.733 0 0 0 273.267 117.993 A 40.651 40.651 0 0 0 273.8 115.81 A 49.852 49.852 0 0 0 274.463 111.987 A 71.258 71.258 0 0 0 274.666 110.343 A 81.838 81.838 0 0 0 275.073 105.152 A 152.431 152.431 0 0 0 275.244 97.901 A 485.808 485.808 0 0 0 275.232 94.385 A 374.22 374.22 0 0 0 275.195 91.162 A 387.641 387.641 0 0 1 275.147 85.01 Q 278.931 80.28 281.895 76.16 A 139.365 139.365 0 0 0 285.156 71.436 A 108.622 108.622 0 0 0 286.395 69.512 A 85.024 85.024 0 0 0 288.037 66.8 A 6502.397 6502.397 0 0 0 288.037 67.774 L 288.037 70.85 Q 288.037 72.559 288.843 73.755 A 3.293 3.293 0 0 0 288.859 73.778 Q 289.663 74.951 291.162 74.951 Q 291.733 74.951 292.407 74.617 A 5.564 5.564 0 0 0 293.042 74.243 Q 293.797 73.734 294.538 72.532 A 13.48 13.48 0 0 0 295.117 71.485 Q 295.52 70.679 296.088 69.557 A 824.428 824.428 0 0 1 296.484 68.775 Q 297.314 67.139 298.34 65.332 A 174.17 174.17 0 0 1 300.464 61.694 A 43.898 43.898 0 0 1 301.425 60.162 A 34.871 34.871 0 0 1 302.661 58.399 A 24.016 24.016 0 0 1 303.055 57.888 Q 303.485 57.346 303.899 56.893 A 12.724 12.724 0 0 1 304.761 56.03 A 6.58 6.58 0 0 1 304.886 55.92 Q 305.449 55.438 305.94 55.249 A 1.68 1.68 0 0 1 306.543 55.127 Q 307.08 55.127 307.495 55.664 Q 307.91 56.201 307.91 57.715 A 11.531 11.531 0 0 1 307.903 58.107 Q 307.896 58.317 307.882 58.552 A 24.409 24.409 0 0 1 307.837 59.155 A 117.663 117.663 0 0 1 307.758 60.04 A 144.013 144.013 0 0 1 307.666 60.986 A 74.548 74.548 0 0 0 307.495 62.964 A 29.23 29.23 0 0 0 307.451 63.698 A 23.977 23.977 0 0 0 307.422 64.844 A 21.987 21.987 0 0 0 307.426 65.273 A 24.199 24.199 0 0 0 307.69 68.36 A 11.869 11.869 0 0 0 307.855 69.241 A 10.006 10.006 0 0 0 308.716 71.631 A 6.595 6.595 0 0 0 310.84 74.048 Q 311.737 74.673 313.013 74.888 A 8.684 8.684 0 0 0 314.453 75 A 7.82 7.82 0 0 0 318.188 74.048 A 13.9 13.9 0 0 0 318.438 73.911 A 14.862 14.862 0 0 0 321.509 71.607 A 24.369 24.369 0 0 0 324.316 68.36 A 50.273 50.273 0 0 0 325.296 66.955 A 40.346 40.346 0 0 0 326.538 64.99 A 45.968 45.968 0 0 0 326.759 64.612 A 31.335 31.335 0 0 0 327.612 66.602 A 25.393 25.393 0 0 0 327.781 66.949 Q 329.611 70.654 332.178 72.754 A 9.311 9.311 0 0 0 338.232 74.951 A 7.173 7.173 0 0 0 341.846 73.975 A 14.596 14.596 0 0 0 342.164 73.787 A 15.709 15.709 0 0 0 345.044 71.533 Q 346.533 70.069 347.73 68.286 A 57.03 57.03 0 0 0 348.653 66.866 A 45.574 45.574 0 0 0 348.924 66.431 A 17.067 17.067 0 0 0 349.39 69.019 A 12.594 12.594 0 0 0 349.775 70.23 A 10.239 10.239 0 0 0 351.099 72.705 Q 352.246 74.268 353.906 75.195 A 7.029 7.029 0 0 0 355.708 75.893 A 8.808 8.808 0 0 0 357.764 76.123 A 7.019 7.019 0 0 0 358.933 76.025 A 7.812 7.812 0 0 0 361.133 75.293 A 13.449 13.449 0 0 0 361.979 74.831 A 15.182 15.182 0 0 0 364.307 73.12 A 22.341 22.341 0 0 0 364.589 72.866 A 24.386 24.386 0 0 0 367.163 70.093 A 45.815 45.815 0 0 0 369.629 66.699 Q 370.752 64.99 371.631 63.379 Q 372.18 62.372 372.615 61.556 A 120.518 120.518 0 0 0 373.048 60.736 A 1.821 1.821 0 0 0 373.125 60.589 A 1.444 1.444 0 0 0 373.2 60.412 A 86.311 86.311 0 0 1 373.971 58.611 Q 374.778 56.789 375.424 55.617 A 14.065 14.065 0 0 1 376.025 54.614 A 28.325 28.325 0 0 1 376.055 54.571 Q 376.915 53.286 377.368 52.917 A 0.745 0.745 0 0 1 377.588 52.783 Q 377.819 52.976 377.929 53.716 A 7.299 7.299 0 0 1 377.979 54.151 A 24.573 24.573 0 0 1 378.012 54.575 A 27.686 27.686 0 0 1 378.076 56.494 Q 378.076 57.422 377.979 58.789 A 128.07 128.07 0 0 1 377.869 60.211 A 160.53 160.53 0 0 1 377.734 61.743 A 2315.694 2315.694 0 0 0 377.441 64.942 Q 377.295 66.553 377.148 67.944 A 446.074 446.074 0 0 0 377.062 68.776 Q 377.021 69.173 376.984 69.531 A 234.248 234.248 0 0 0 376.904 70.337 Q 376.828 71.119 376.811 71.499 A 4.221 4.221 0 0 0 376.807 71.68 Q 376.807 72.315 376.948 72.833 A 2.784 2.784 0 0 0 377.661 74.097 A 2.802 2.802 0 0 0 378.93 74.826 A 3.803 3.803 0 0 0 379.932 74.951 A 3.049 3.049 0 0 0 381.078 74.724 A 4.01 4.01 0 0 0 381.934 74.243 A 3.084 3.084 0 0 0 382.211 74.016 Q 383.049 73.244 383.887 71.485 Q 384.375 70.41 385.23 68.775 A 146.644 146.644 0 0 1 386.121 67.096 A 173.607 173.607 0 0 1 387.085 65.332 A 78.485 78.485 0 0 1 389.233 61.694 A 54.992 54.992 0 0 1 390.228 60.162 A 42.932 42.932 0 0 1 391.48 58.399 A 24.016 24.016 0 0 1 391.873 57.888 Q 392.303 57.346 392.717 56.893 A 12.724 12.724 0 0 1 393.579 56.03 A 6.58 6.58 0 0 1 393.704 55.92 Q 394.267 55.438 394.758 55.249 A 1.68 1.68 0 0 1 395.361 55.127 A 0.604 0.604 0 0 1 395.519 55.149 Q 395.848 55.238 396.24 55.689 Q 396.61 56.114 396.7 57.115 A 7.859 7.859 0 0 1 396.729 57.813 Q 396.729 58.74 396.655 59.766 A 43.66 43.66 0 0 1 396.46 61.817 A 55.079 55.079 0 0 0 396.388 62.448 A 47.176 47.176 0 0 0 396.265 63.77 A 29.429 29.429 0 0 0 396.255 63.892 Q 396.223 64.317 396.208 64.7 A 17.57 17.57 0 0 0 396.191 65.43 Q 396.191 67.139 396.46 68.823 A 10.359 10.359 0 0 0 396.515 69.137 A 9.084 9.084 0 0 0 397.51 71.9 A 6.178 6.178 0 0 0 399.658 74.146 A 4.755 4.755 0 0 0 400.316 74.487 Q 400.962 74.762 401.751 74.89 A 9.233 9.233 0 0 0 403.223 75 A 7.666 7.666 0 0 0 406.958 74.024 Q 408.74 73.047 410.278 71.582 A 22.481 22.481 0 0 0 413.086 68.335 A 59.404 59.404 0 0 0 413.516 67.724 A 10.527 10.527 0 0 0 413.916 69.385 Q 414.453 70.996 415.43 72.193 Q 416.406 73.389 417.798 74.048 A 6.6 6.6 0 0 0 418.981 74.475 A 7.667 7.667 0 0 0 420.898 74.707 A 7.749 7.749 0 0 0 422.844 74.455 A 9.553 9.553 0 0 0 424.927 73.633 A 10.944 10.944 0 0 0 428.418 70.703 A 200.986 200.986 0 0 0 428.339 73.67 A 260.47 260.47 0 0 0 428.296 76.904 A 964.38 964.38 0 0 1 428.223 83.692 Q 426.221 85.889 424.438 88.574 Q 422.656 91.26 421.143 94.19 A 69.772 69.772 0 0 0 418.384 100.22 A 71.036 71.036 0 0 0 418.23 100.607 A 64.977 64.977 0 0 0 416.26 106.348 A 54.786 54.786 0 0 0 415.846 107.851 A 48.123 48.123 0 0 0 414.917 112.232 A 38.321 38.321 0 0 0 414.6 114.652 A 29.68 29.68 0 0 0 414.453 117.529 Q 414.453 120.219 415.057 122.187 A 8.474 8.474 0 0 0 416.211 124.61 A 5.599 5.599 0 0 0 419.001 126.75 A 6.829 6.829 0 0 0 421.24 127.1 Q 423.535 127.1 425.22 125.952 A 8.766 8.766 0 0 0 426.714 124.659 A 10.916 10.916 0 0 0 428.101 122.778 A 16.915 16.915 0 0 0 429.189 120.564 A 22.733 22.733 0 0 0 430.054 117.993 A 40.651 40.651 0 0 0 430.587 115.81 A 49.852 49.852 0 0 0 431.25 111.987 A 71.258 71.258 0 0 0 431.453 110.343 A 81.838 81.838 0 0 0 431.86 105.152 A 152.431 152.431 0 0 0 432.031 97.901 A 485.808 485.808 0 0 0 432.019 94.385 A 374.22 374.22 0 0 0 431.982 91.162 A 387.641 387.641 0 0 1 431.934 85.01 Q 435.718 80.28 438.682 76.16 A 139.365 139.365 0 0 0 441.943 71.436 A 108.622 108.622 0 0 0 443.182 69.512 Q 444.703 67.093 445.913 64.867 A 58.075 58.075 0 0 0 448.047 60.547 A 1.983 1.983 0 0 0 448.089 60.44 A 1.686 1.686 0 0 0 448.193 59.863 A 1.78 1.78 0 0 0 448.055 59.164 A 1.967 1.967 0 0 0 447.656 58.569 A 1.761 1.761 0 0 0 446.981 58.123 A 2.005 2.005 0 0 0 446.289 58.008 A 2.062 2.062 0 0 0 446.157 58.012 A 1.681 1.681 0 0 0 445.337 58.277 A 1.63 1.63 0 0 0 444.924 58.664 A 2.179 2.179 0 0 0 444.678 59.082 A 46.972 46.972 0 0 1 444.128 60.257 Q 441.67 65.332 437.064 71.958 A 185.208 185.208 0 0 1 431.934 78.955 A 774.352 774.352 0 0 1 431.989 75.531 A 656.771 656.771 0 0 1 432.056 72.29 Q 432.097 70.519 432.13 68.987 A 1559.941 1559.941 0 0 0 432.178 66.748 A 510.589 510.589 0 0 1 432.201 65.679 Q 432.226 64.56 432.251 63.695 A 163.146 163.146 0 0 1 432.275 62.915 Q 432.324 61.475 432.324 61.426 Q 432.324 60.694 431.86 60.108 A 1.473 1.473 0 0 0 431.137 59.604 A 1.881 1.881 0 0 0 430.566 59.522 Q 429.834 59.522 429.297 59.986 Q 428.76 60.449 428.662 61.133 Q 428.32 63.672 427.515 65.528 Q 427.124 66.426 426.671 67.176 A 9.929 9.929 0 0 1 425.635 68.604 Q 425.098 69.214 424.542 69.666 A 6.43 6.43 0 0 1 423.413 70.41 A 6.984 6.984 0 0 1 423.312 70.461 Q 422.827 70.699 422.364 70.831 A 4.086 4.086 0 0 1 421.24 70.996 A 5.244 5.244 0 0 1 420.178 70.895 A 3.31 3.31 0 0 1 418.066 69.556 Q 417.041 68.115 417.041 65.772 A 18.415 18.415 0 0 1 417.047 65.289 Q 417.121 62.473 418.066 60.425 A 13.575 13.575 0 0 1 418.942 58.812 A 10.441 10.441 0 0 1 420.605 56.787 A 11.343 11.343 0 0 1 421.279 56.204 A 9.506 9.506 0 0 1 423.877 54.712 Q 424.77 54.377 425.587 54.213 A 7.658 7.658 0 0 1 427.1 54.053 Q 428.076 54.053 428.784 54.248 Q 429.138 54.346 429.443 54.468 A 4.498 4.498 0 0 1 430.005 54.736 A 8.242 8.242 0 0 1 430.237 54.874 Q 430.418 54.985 430.569 55.093 A 3.996 3.996 0 0 1 430.835 55.298 A 20.76 20.76 0 0 0 430.977 55.417 Q 431.198 55.601 431.348 55.713 A 2.609 2.609 0 0 0 431.79 56.019 A 1.821 1.821 0 0 0 432.666 56.25 Q 433.398 56.25 433.936 55.689 A 2.349 2.349 0 0 0 433.971 55.651 A 1.807 1.807 0 0 0 434.473 54.395 A 1.824 1.824 0 0 0 434.321 53.658 A 2.108 2.108 0 0 0 433.936 53.076 Q 433.893 53.034 433.514 52.692 A 200.257 200.257 0 0 0 433.398 52.588 A 4.64 4.64 0 0 0 433.014 52.28 Q 432.6 51.981 432.007 51.66 Q 431.499 51.386 430.875 51.142 A 14.932 14.932 0 0 0 429.834 50.781 A 8.43 8.43 0 0 0 428.762 50.528 A 10.237 10.237 0 0 0 427.051 50.391 A 11.083 11.083 0 0 0 424.908 50.605 A 13.892 13.892 0 0 0 422.388 51.367 Q 419.971 52.344 417.969 54.297 A 14.001 14.001 0 0 0 416.353 56.188 A 16.963 16.963 0 0 0 415.174 58.114 A 1.84 1.84 0 0 0 414.917 58.252 A 1.794 1.794 0 0 0 414.585 58.521 A 1.967 1.967 0 0 0 414.209 59.082 A 18.709 18.709 0 0 1 414.159 59.2 Q 413.798 60.037 413.205 61.197 A 70.342 70.342 0 0 1 412.573 62.403 A 28.781 28.781 0 0 1 412.364 62.786 A 31.435 31.435 0 0 1 409.985 66.431 A 22.122 22.122 0 0 1 409.411 67.161 A 19.257 19.257 0 0 1 406.738 69.849 A 7.27 7.27 0 0 1 405.461 70.699 A 5.055 5.055 0 0 1 403.125 71.289 A 4.312 4.312 0 0 1 402.948 71.286 Q 402.57 71.27 402.25 71.187 A 2.281 2.281 0 0 1 401.465 70.825 A 2.752 2.752 0 0 1 400.949 70.334 A 3.23 3.23 0 0 1 400.488 69.556 A 4.959 4.959 0 0 1 400.483 69.542 Q 400.305 69.12 400.187 68.624 A 8.039 8.039 0 0 1 400.024 67.676 A 18.19 18.19 0 0 1 399.971 67.133 A 20.51 20.51 0 0 1 399.902 65.43 A 25.291 25.291 0 0 1 399.913 64.717 A 30.58 30.58 0 0 1 399.976 63.452 Q 400.049 62.403 400.122 61.377 A 222.015 222.015 0 0 1 400.195 60.382 A 183.804 183.804 0 0 1 400.269 59.448 Q 400.314 58.884 400.332 58.424 A 13.825 13.825 0 0 0 400.342 57.91 A 10.163 10.163 0 0 0 400.14 55.834 A 7.198 7.198 0 0 0 399.121 53.32 A 3.895 3.895 0 0 0 396.886 51.665 A 5.477 5.477 0 0 0 395.361 51.465 Q 394.608 51.465 393.794 51.732 A 7.456 7.456 0 0 0 392.651 52.222 A 6.764 6.764 0 0 0 392.034 52.591 Q 391.445 52.985 390.86 53.54 A 13.101 13.101 0 0 0 389.795 54.688 A 49.41 49.41 0 0 0 387.085 58.399 Q 385.791 60.352 384.619 62.329 A 96.816 96.816 0 0 0 382.422 66.236 A 124.703 124.703 0 0 0 381.458 68.085 A 92.616 92.616 0 0 0 380.615 69.776 A 85.426 85.426 0 0 0 380.619 69.742 Q 380.727 68.691 380.849 67.267 A 251.754 251.754 0 0 0 380.933 66.26 A 404.549 404.549 0 0 1 381.299 62.036 A 170.62 170.62 0 0 0 381.476 59.979 A 138.904 138.904 0 0 0 381.616 58.057 A 118.802 118.802 0 0 0 381.621 57.99 Q 381.738 56.185 381.738 55.322 Q 381.738 54.151 381.519 53.028 A 9.025 9.025 0 0 0 381.393 52.478 A 7.701 7.701 0 0 0 380.835 50.977 A 4.671 4.671 0 0 0 380.73 50.778 A 3.938 3.938 0 0 0 379.59 49.487 A 2.882 2.882 0 0 0 378.603 49.033 A 3.74 3.74 0 0 0 377.686 48.926 Q 376.272 48.926 374.845 50.284 A 10.22 10.22 0 0 0 373.853 51.392 Q 372.496 53.126 371.008 56.223 A 62.985 62.985 0 0 0 369.727 59.082 A 2.484 2.484 0 0 0 369.644 59.344 A 71.218 71.218 0 0 1 368.586 61.352 A 57.077 57.077 0 0 1 366.748 64.478 A 47.112 47.112 0 0 1 366.649 64.634 Q 365.137 66.999 363.647 68.701 Q 362.782 69.69 361.94 70.432 A 12.258 12.258 0 0 1 360.645 71.436 A 7.868 7.868 0 0 1 360.434 71.571 Q 359.867 71.924 359.315 72.128 A 4.304 4.304 0 0 1 357.813 72.412 A 5.017 5.017 0 0 1 357.099 72.36 A 6.132 6.132 0 0 1 356.079 72.119 A 3.105 3.105 0 0 1 355.946 72.073 Q 355.48 71.898 355.041 71.565 A 5.069 5.069 0 0 1 354.37 70.947 Q 353.86 70.391 353.468 69.552 A 9.227 9.227 0 0 1 353.052 68.482 A 8.927 8.927 0 0 1 352.76 67.272 Q 352.644 66.609 352.589 65.826 A 21.689 21.689 0 0 1 352.539 64.307 A 68.393 68.393 0 0 1 352.57 62.311 A 89.207 89.207 0 0 1 352.661 60.132 Q 352.783 57.861 352.954 55.835 A 4937.162 4937.162 0 0 0 353.056 54.623 Q 353.163 53.351 353.247 52.344 Q 353.346 51.154 353.365 50.737 A 3.592 3.592 0 0 0 353.369 50.586 A 1.914 1.914 0 0 0 352.881 49.292 A 1.932 1.932 0 0 0 352.811 49.216 A 1.54 1.54 0 0 0 351.66 48.731 A 2.399 2.399 0 0 0 351.33 48.753 A 1.725 1.725 0 0 0 350.317 49.243 Q 349.805 49.756 349.707 50.44 A 112.1 112.1 0 0 0 348.987 58.484 A 1.644 1.644 0 0 0 348.95 58.526 A 2.195 2.195 0 0 0 348.584 59.131 A 15.612 15.612 0 0 1 348.393 59.585 Q 348.051 60.367 347.508 61.415 A 58.892 58.892 0 0 1 346.997 62.378 A 32.982 32.982 0 0 1 346.858 62.631 A 35.931 35.931 0 0 1 344.458 66.382 A 22.314 22.314 0 0 1 343.723 67.337 A 19.09 19.09 0 0 1 341.333 69.8 Q 339.648 71.24 337.939 71.24 Q 336.475 71.24 335.205 70.41 Q 333.936 69.58 332.837 68.14 A 15.346 15.346 0 0 1 331.917 66.785 A 19.431 19.431 0 0 1 330.859 64.771 A 26.381 26.381 0 0 1 330.384 63.661 A 30.44 30.44 0 0 1 329.346 60.596 A 7.344 7.344 0 0 0 329.5 60.395 Q 329.979 59.753 330.527 58.754 A 29.363 29.363 0 0 0 331.104 57.642 Q 331.653 56.529 332.21 55.193 A 62.505 62.505 0 0 0 333.081 52.979 A 85.07 85.07 0 0 0 334.07 50.171 A 105.746 105.746 0 0 0 335.034 47.119 Q 335.986 43.945 336.743 40.601 Q 337.5 37.256 337.939 33.887 A 55.671 55.671 0 0 0 338.207 31.415 A 45.681 45.681 0 0 0 338.379 27.539 L 338.379 27.002 L 363.135 27.002 A 2.478 2.478 0 0 0 363.338 26.994 A 1.898 1.898 0 0 0 364.453 26.538 A 1.486 1.486 0 0 0 364.905 25.865 A 1.833 1.833 0 0 0 364.99 25.293 A 2.128 2.128 0 0 0 364.984 25.123 A 1.524 1.524 0 0 0 364.453 24.048 A 1.845 1.845 0 0 0 363.814 23.686 A 2.178 2.178 0 0 0 363.135 23.584 L 338.184 23.584 A 27.942 27.942 0 0 0 337.98 22.102 A 22.04 22.04 0 0 0 337.622 20.361 A 11.161 11.161 0 0 0 337.235 19.114 A 8.347 8.347 0 0 0 336.621 17.822 A 6.066 6.066 0 0 0 336.198 17.196 A 4.826 4.826 0 0 0 335.083 16.138 A 3.441 3.441 0 0 0 334.1 15.68 A 4.116 4.116 0 0 0 332.959 15.528 A 4.531 4.531 0 0 0 330.64 16.138 A 6.18 6.18 0 0 0 329.804 16.723 A 7.405 7.405 0 0 0 328.735 17.822 Q 327.881 18.897 327.222 20.361 A 20.044 20.044 0 0 0 326.751 21.501 A 24.26 24.26 0 0 0 326.074 23.584 L 307.715 23.584 A 2.478 2.478 0 0 0 307.512 23.592 A 1.898 1.898 0 0 0 306.397 24.048 A 1.486 1.486 0 0 0 305.945 24.721 A 1.833 1.833 0 0 0 305.859 25.293 A 2.128 2.128 0 0 0 305.866 25.463 A 1.524 1.524 0 0 0 306.397 26.538 A 1.845 1.845 0 0 0 307.036 26.9 A 2.178 2.178 0 0 0 307.715 27.002 L 325.244 27.002 Q 324.756 29.444 324.463 32.007 A 102.079 102.079 0 0 0 324.392 32.646 A 92.83 92.83 0 0 0 324.023 36.987 A 135.039 135.039 0 0 0 323.941 38.474 A 114.976 114.976 0 0 0 323.828 41.577 Q 323.779 43.75 323.779 45.361 A 76.637 76.637 0 0 0 323.966 50.805 A 60.463 60.463 0 0 0 324.756 57.227 A 51.666 51.666 0 0 0 324.881 57.898 A 43.356 43.356 0 0 0 325.226 59.529 A 53.038 53.038 0 0 1 325.089 59.81 Q 324.918 60.16 324.716 60.561 A 118.01 118.01 0 0 1 324.414 61.157 A 32.324 32.324 0 0 1 323.911 62.105 A 38.831 38.831 0 0 1 322.949 63.745 A 30.372 30.372 0 0 1 322.739 64.081 A 33.588 33.588 0 0 1 321.094 66.431 Q 320.068 67.774 318.945 68.872 A 12.824 12.824 0 0 1 318.06 69.663 A 10.101 10.101 0 0 1 316.65 70.63 A 5.699 5.699 0 0 1 315.973 70.956 A 4.458 4.458 0 0 1 314.307 71.289 Q 313.281 71.289 312.647 70.728 Q 312.012 70.166 311.694 69.263 A 7.905 7.905 0 0 1 311.426 68.299 A 10.479 10.479 0 0 1 311.255 67.212 A 21.91 21.91 0 0 1 311.133 64.893 A 37.397 37.397 0 0 1 311.141 64.13 A 33.107 33.107 0 0 1 311.353 60.962 Q 311.504 59.67 311.551 58.735 A 15.486 15.486 0 0 0 311.572 57.959 Q 311.572 56.592 311.255 55.42 A 7.596 7.596 0 0 0 311.028 54.716 A 6.193 6.193 0 0 0 310.327 53.369 Q 309.717 52.49 308.765 51.978 A 4.14 4.14 0 0 0 307.663 51.578 A 5.337 5.337 0 0 0 306.543 51.465 Q 305.789 51.465 304.975 51.732 A 7.456 7.456 0 0 0 303.833 52.222 A 6.764 6.764 0 0 0 303.215 52.591 Q 302.627 52.985 302.042 53.54 A 13.101 13.101 0 0 0 300.977 54.688 A 44.682 44.682 0 0 0 300.8 54.908 A 48.841 48.841 0 0 0 298.242 58.447 A 81.611 81.611 0 0 0 295.752 62.476 A 138.886 138.886 0 0 0 295.461 62.981 A 125.291 125.291 0 0 0 293.555 66.431 A 94.233 94.233 0 0 0 292.59 68.292 A 72.567 72.567 0 0 0 291.748 70.02 L 291.699 67.725 L 291.699 66.016 L 291.699 63.721 L 291.699 61.279 L 291.699 59.18 Q 294.287 54.444 296.631 49.439 Q 298.975 44.434 300.732 39.16 Q 302.49 33.887 303.54 28.345 A 60.601 60.601 0 0 0 304.59 17.041 A 39.815 39.815 0 0 0 304.571 15.815 A 34.781 34.781 0 0 0 304.199 11.646 A 20.027 20.027 0 0 0 303.726 9.382 A 14.746 14.746 0 0 0 302.93 7.153 A 9.673 9.673 0 0 0 302.245 5.897 A 7.422 7.422 0 0 0 300.635 4.102 A 5.002 5.002 0 0 0 298.896 3.209 A 6.209 6.209 0 0 0 297.168 2.979 A 4.383 4.383 0 0 0 294.346 3.969 A 6.13 6.13 0 0 0 293.188 5.225 Q 291.602 7.471 290.576 11.597 A 45.023 45.023 0 0 0 290.124 13.625 Q 289.77 15.393 289.495 17.422 A 88.25 88.25 0 0 0 289.038 21.558 A 196.887 196.887 0 0 0 288.599 27.735 A 268.484 268.484 0 0 0 288.306 34.595 Q 288.086 41.797 288.062 50.171 A 5620.963 5620.963 0 0 0 288.043 58.759 A 6502.397 6502.397 0 0 0 288.043 58.799 A 2.179 2.179 0 0 0 287.891 59.082 A 46.972 46.972 0 0 1 287.341 60.257 Q 284.883 65.332 280.277 71.958 A 185.208 185.208 0 0 1 275.147 78.955 A 774.352 774.352 0 0 1 275.201 75.531 A 656.771 656.771 0 0 1 275.269 72.29 Q 275.31 70.519 275.343 68.987 A 1559.941 1559.941 0 0 0 275.391 66.748 A 510.589 510.589 0 0 1 275.414 65.679 Q 275.439 64.56 275.464 63.695 A 163.146 163.146 0 0 1 275.488 62.915 Q 275.537 61.475 275.537 61.426 Q 275.537 60.694 275.073 60.108 A 1.473 1.473 0 0 0 274.35 59.604 A 1.881 1.881 0 0 0 273.779 59.522 Q 273.047 59.522 272.51 59.986 Q 271.973 60.449 271.875 61.133 Q 271.533 63.672 270.728 65.528 Q 270.337 66.426 269.884 67.176 A 9.929 9.929 0 0 1 268.848 68.604 Q 268.311 69.214 267.755 69.666 A 6.43 6.43 0 0 1 266.626 70.41 A 6.984 6.984 0 0 1 266.525 70.461 Q 266.04 70.699 265.577 70.831 A 4.086 4.086 0 0 1 264.453 70.996 A 5.244 5.244 0 0 1 263.391 70.895 A 3.31 3.31 0 0 1 261.279 69.556 Q 260.254 68.115 260.254 65.772 A 18.415 18.415 0 0 1 260.26 65.289 Q 260.334 62.473 261.279 60.425 A 13.575 13.575 0 0 1 262.155 58.812 A 10.441 10.441 0 0 1 263.818 56.787 A 11.343 11.343 0 0 1 264.492 56.204 A 9.506 9.506 0 0 1 267.09 54.712 Q 267.982 54.377 268.8 54.213 A 7.658 7.658 0 0 1 270.313 54.053 Q 271.289 54.053 271.997 54.248 Q 272.351 54.346 272.656 54.468 A 4.498 4.498 0 0 1 273.218 54.736 A 8.242 8.242 0 0 1 273.45 54.874 Q 273.631 54.985 273.782 55.093 A 3.996 3.996 0 0 1 274.048 55.298 A 20.76 20.76 0 0 0 274.19 55.417 Q 274.411 55.601 274.561 55.713 A 2.609 2.609 0 0 0 275.003 56.019 A 1.821 1.821 0 0 0 275.879 56.25 Q 276.611 56.25 277.148 55.689 A 2.349 2.349 0 0 0 277.184 55.651 A 1.807 1.807 0 0 0 277.686 54.395 A 1.824 1.824 0 0 0 277.534 53.658 A 2.108 2.108 0 0 0 277.148 53.076 Q 277.106 53.034 276.727 52.692 A 200.257 200.257 0 0 0 276.611 52.588 A 4.64 4.64 0 0 0 276.227 52.28 Q 275.813 51.981 275.22 51.66 Q 274.712 51.386 274.088 51.142 A 14.932 14.932 0 0 0 273.047 50.781 A 8.43 8.43 0 0 0 271.975 50.528 A 10.237 10.237 0 0 0 270.264 50.391 A 11.083 11.083 0 0 0 268.12 50.605 A 13.892 13.892 0 0 0 265.601 51.367 Q 263.184 52.344 261.182 54.297 A 14.001 14.001 0 0 0 259.565 56.188 A 16.963 16.963 0 0 0 258.376 58.134 A 1.836 1.836 0 0 0 258.203 58.228 Q 257.764 58.496 257.52 58.985 A 71.218 71.218 0 0 1 256.282 61.352 A 57.077 57.077 0 0 1 254.443 64.478 A 47.112 47.112 0 0 1 254.344 64.634 Q 252.832 66.999 251.343 68.701 Q 250.478 69.69 249.636 70.432 A 12.258 12.258 0 0 1 248.34 71.436 A 7.868 7.868 0 0 1 248.129 71.571 Q 247.562 71.924 247.01 72.128 A 4.304 4.304 0 0 1 245.508 72.412 A 5.017 5.017 0 0 1 244.794 72.36 A 6.132 6.132 0 0 1 243.774 72.119 A 3.105 3.105 0 0 1 243.641 72.073 Q 243.175 71.898 242.736 71.565 A 5.069 5.069 0 0 1 242.065 70.947 Q 241.556 70.391 241.163 69.552 A 9.227 9.227 0 0 1 240.747 68.482 A 8.927 8.927 0 0 1 240.455 67.272 Q 240.34 66.609 240.284 65.826 A 21.689 21.689 0 0 1 240.234 64.307 A 68.393 68.393 0 0 1 240.265 62.311 A 89.207 89.207 0 0 1 240.356 60.132 Q 240.479 57.861 240.649 55.835 A 4937.162 4937.162 0 0 0 240.751 54.623 Q 240.858 53.351 240.942 52.344 Q 241.042 51.154 241.06 50.737 A 3.592 3.592 0 0 0 241.064 50.586 A 1.914 1.914 0 0 0 240.576 49.292 A 1.932 1.932 0 0 0 240.506 49.216 A 1.54 1.54 0 0 0 239.355 48.731 A 2.399 2.399 0 0 0 239.025 48.753 A 1.725 1.725 0 0 0 238.013 49.243 Q 237.5 49.756 237.402 50.44 A 112.1 112.1 0 0 0 236.673 58.665 A 1.871 1.871 0 0 0 236.475 58.985 Q 235.84 60.303 234.692 62.476 Q 233.545 64.649 232.031 66.748 Q 230.518 68.848 228.711 70.386 A 7.408 7.408 0 0 1 227.452 71.262 A 5.176 5.176 0 0 1 224.951 71.924 A 4.413 4.413 0 0 1 222.704 71.315 Q 221.892 70.845 221.165 70.012 A 10.387 10.387 0 0 1 220.02 68.384 A 20.698 20.698 0 0 1 218.708 65.636 Q 217.549 62.712 216.748 58.643 A 153.76 153.76 0 0 0 221.875 48.413 A 106.787 106.787 0 0 0 226.025 37.891 A 85.296 85.296 0 0 0 228.809 27.417 A 57.914 57.914 0 0 0 229.157 25.478 A 50.876 50.876 0 0 0 229.834 17.334 A 57.237 57.237 0 0 0 229.806 15.511 Q 229.717 12.725 229.346 10.645 Q 229.048 8.978 228.606 7.693 A 11.324 11.324 0 0 0 227.979 6.201 A 8.881 8.881 0 0 0 227.863 5.984 Q 227.016 4.443 225.806 3.736 Q 224.512 2.979 222.9 2.979 A 4.654 4.654 0 0 0 220.613 3.568 A 5.907 5.907 0 0 0 219.238 4.639 A 10.594 10.594 0 0 0 218.707 5.23 Q 218.041 6.028 217.443 7.042 A 19.784 19.784 0 0 0 216.382 9.131 A 28.538 28.538 0 0 0 216.218 9.511 Q 215.65 10.856 215.155 12.402 A 46.79 46.79 0 0 0 214.233 15.723 A 75.251 75.251 0 0 0 213.802 17.63 A 86.399 86.399 0 0 0 212.744 23.682 Q 212.158 27.881 211.89 32.276 A 150.927 150.927 0 0 0 211.772 34.455 A 135.734 135.734 0 0 0 211.621 40.772 A 99.777 99.777 0 0 0 211.624 41.585 Q 211.635 42.829 211.675 44.22 A 174.499 174.499 0 0 0 211.792 47.266 A 88.673 88.673 0 0 0 211.84 48.185 A 97.72 97.72 0 0 0 212.451 54.81 A 69.033 69.033 0 0 0 212.944 58.101 A 1.836 1.836 0 0 0 212.695 58.228 A 1.619 1.619 0 0 0 212.284 58.589 A 2.021 2.021 0 0 0 212.012 59.033 A 46.984 46.984 0 0 1 210.746 61.539 Q 209.925 63.045 209.086 64.279 A 21.03 21.03 0 0 1 207.275 66.602 A 30.203 30.203 0 0 1 206.128 67.799 Q 205.245 68.669 204.4 69.34 A 14.059 14.059 0 0 1 202.661 70.532 Q 201.303 71.311 200.145 71.688 A 7.391 7.391 0 0 1 198.828 71.997 A 46.93 46.93 0 0 1 198.067 72.092 Q 197.346 72.176 196.86 72.203 A 7.566 7.566 0 0 1 196.436 72.217 Q 194.043 72.217 192.139 71.118 A 7.822 7.822 0 0 1 191.777 70.897 A 6.283 6.283 0 0 1 189.404 68.164 Q 191.602 67.481 193.677 66.406 A 19.801 19.801 0 0 0 194.314 66.062 A 17.387 17.387 0 0 0 197.363 63.892 A 11.845 11.845 0 0 0 199.951 60.62 A 8.194 8.194 0 0 0 200.332 59.802 A 8.577 8.577 0 0 0 200.928 56.592 A 7.675 7.675 0 0 0 200.923 56.328 A 6.666 6.666 0 0 0 200.415 53.955 Q 199.902 52.735 198.999 51.831 Q 198.096 50.928 196.875 50.415 A 6.388 6.388 0 0 0 196.332 50.215 A 6.887 6.887 0 0 0 194.238 49.903 A 7.647 7.647 0 0 0 189.624 51.416 Q 187.549 52.93 185.889 55.274 Q 184.229 57.617 183.008 60.376 A 57.141 57.141 0 0 0 182.121 62.49 A 45.998 45.998 0 0 0 181.006 65.625 A 1495.781 1495.781 0 0 0 181.02 64.699 Q 181.04 63.282 181.061 61.691 A 2654.135 2654.135 0 0 0 181.104 58.203 A 1974.375 1974.375 0 0 1 181.158 53.894 A 2292.104 2292.104 0 0 1 181.226 49.365 Q 181.299 44.727 181.372 39.844 Q 181.445 34.961 181.519 30.347 A 4809.484 4809.484 0 0 1 181.592 25.861 A 4031.316 4031.316 0 0 1 181.665 21.631 Q 181.711 19.068 181.747 16.905 A 2788.211 2788.211 0 0 0 181.787 14.453 A 3515.512 3515.512 0 0 0 181.809 13.08 Q 181.831 11.644 181.847 10.539 A 1094.666 1094.666 0 0 0 181.86 9.546 A 4289.015 4289.015 0 0 0 181.866 9.111 Q 181.882 7.904 181.884 7.669 A 6.824 6.824 0 0 0 181.885 7.617 Q 181.885 6.787 181.348 6.275 A 1.814 1.814 0 0 0 180.76 5.894 A 1.966 1.966 0 0 0 180.029 5.762 A 1.752 1.752 0 0 0 179.281 5.929 A 2.213 2.213 0 0 0 178.76 6.275 A 1.715 1.715 0 0 0 178.339 6.814 A 1.698 1.698 0 0 0 178.174 7.569 A 27.233 27.233 0 0 1 178.173 7.715 Q 178.17 8.252 178.149 9.986 A 872.727 872.727 0 0 1 178.144 10.426 Q 178.12 12.349 178.076 15.21 A 2121.008 2121.008 0 0 1 178.062 16.128 Q 178.04 17.532 178.014 19.102 A 3683.104 3683.104 0 0 1 177.954 22.534 Q 177.881 26.66 177.832 31.25 Q 177.783 35.84 177.686 40.674 A 1071.416 1071.416 0 0 0 177.674 41.277 A 984.393 984.393 0 0 0 177.539 50.073 A 1296.865 1296.865 0 0 1 177.484 54.517 A 1094.713 1094.713 0 0 1 177.421 58.487 A 1.496 1.496 0 0 0 177.1 58.985 Q 177.002 59.278 176.44 60.425 A 16.989 16.989 0 0 1 176.147 60.996 Q 175.889 61.475 175.567 62.012 A 36.255 36.255 0 0 1 174.878 63.111 A 32.633 32.633 0 0 1 173.773 64.697 A 43.954 43.954 0 0 1 172.461 66.382 A 19.662 19.662 0 0 1 172.372 66.49 A 21.073 21.073 0 0 1 169.189 69.58 Q 167.334 71.045 165.088 71.997 A 11.614 11.614 0 0 1 163.794 72.457 A 12.804 12.804 0 0 1 160.205 72.949 A 8.694 8.694 0 0 1 158.689 72.823 A 6.423 6.423 0 0 1 156.665 72.119 Q 155.176 71.289 154.199 69.898 Q 153.223 68.506 152.734 66.699 A 13.524 13.524 0 0 1 152.594 66.13 A 14.764 14.764 0 0 1 152.246 62.891 A 15.402 15.402 0 0 1 152.255 62.369 A 13.647 13.647 0 0 1 152.808 58.911 A 14.052 14.052 0 0 1 153.324 57.464 A 10.987 10.987 0 0 1 154.297 55.64 A 9.129 9.129 0 0 1 154.781 54.979 A 7.532 7.532 0 0 1 156.47 53.418 Q 157.715 52.588 159.082 52.588 A 4.562 4.562 0 0 1 159.784 52.64 A 3.33 3.33 0 0 1 161.499 53.418 A 3.345 3.345 0 0 1 162.004 53.959 A 2.182 2.182 0 0 1 162.451 55.274 Q 162.451 55.731 162.384 56.084 A 2.415 2.415 0 0 1 162.28 56.47 Q 162.19 56.716 162.085 56.921 A 2.865 2.865 0 0 1 161.89 57.251 Q 161.67 57.569 161.499 57.861 A 1.209 1.209 0 0 0 161.37 58.184 A 1.51 1.51 0 0 0 161.328 58.545 A 2.363 2.363 0 0 0 161.328 58.569 A 1.833 1.833 0 0 0 161.841 59.863 A 1.666 1.666 0 0 0 162.562 60.312 A 2.085 2.085 0 0 0 163.184 60.401 Q 163.721 60.401 164.258 59.986 A 3.384 3.384 0 0 0 164.794 59.462 A 4.535 4.535 0 0 0 165.21 58.862 A 6.274 6.274 0 0 0 165.556 58.176 A 8.017 8.017 0 0 0 165.894 57.227 Q 166.162 56.299 166.162 55.225 Q 166.162 54.102 165.649 52.979 A 7.234 7.234 0 0 0 164.233 50.928 A 6.206 6.206 0 0 0 163.498 50.284 A 7.166 7.166 0 0 0 162.012 49.439 Q 160.693 48.877 159.082 48.877 Q 156.934 48.877 155.029 49.976 Q 153.125 51.074 151.685 52.979 A 13.545 13.545 0 0 0 150.615 54.635 A 16.193 16.193 0 0 0 149.414 57.446 A 16.366 16.366 0 0 0 149.182 58.229 A 1.84 1.84 0 0 0 149.146 58.252 A 1.794 1.794 0 0 0 148.814 58.521 A 1.967 1.967 0 0 0 148.438 59.082 A 83.015 83.015 0 0 1 148.144 59.695 Q 147.987 60.019 147.812 60.375 A 157.138 157.138 0 0 1 147.363 61.279 A 32.944 32.944 0 0 1 146.86 62.245 A 39.433 39.433 0 0 1 145.898 63.916 A 34.46 34.46 0 0 1 144.067 66.626 A 21.288 21.288 0 0 1 143.561 67.279 A 18.337 18.337 0 0 1 141.968 69.019 A 12.624 12.624 0 0 1 141.137 69.748 A 10.066 10.066 0 0 1 139.722 70.703 A 5.649 5.649 0 0 1 139.2 70.958 A 4.554 4.554 0 0 1 137.402 71.338 A 4.803 4.803 0 0 1 136.804 71.302 A 3.351 3.351 0 0 1 134.57 70.117 A 7.602 7.602 0 0 1 133.973 69.301 A 8.522 8.522 0 0 1 133.032 67.236 A 16.008 16.008 0 0 1 132.373 63.892 A 153.047 153.047 0 0 1 132.31 63.144 Q 132.215 61.99 132.178 61.279 A 1.851 1.851 0 0 0 132.013 60.632 A 2.107 2.107 0 0 0 131.616 60.059 A 2.121 2.121 0 0 0 131.519 59.963 A 1.575 1.575 0 0 0 130.42 59.522 Q 129.688 59.522 129.15 59.986 Q 128.613 60.449 128.516 61.133 A 21.42 21.42 0 0 1 128.471 61.448 Q 128.12 63.788 127.319 65.528 A 18.414 18.414 0 0 1 127.21 65.761 Q 126.398 67.46 125.415 68.604 A 10.503 10.503 0 0 1 125.353 68.675 Q 124.886 69.208 124.401 69.616 A 6.296 6.296 0 0 1 123.218 70.41 Q 122.07 70.996 121.191 70.996 A 5.935 5.935 0 0 1 121.05 70.995 Q 120.558 70.983 120.133 70.889 A 3.378 3.378 0 0 1 119.141 70.508 Q 118.311 70.02 117.822 69.238 A 5.006 5.006 0 0 1 117.788 69.183 A 5.232 5.232 0 0 1 117.139 67.505 A 9.337 9.337 0 0 1 116.943 65.625 A 18.4 18.4 0 0 1 116.944 65.439 Q 116.958 64.136 117.156 62.99 A 10.869 10.869 0 0 1 117.896 60.474 A 13.977 13.977 0 0 1 118.692 58.918 A 10.848 10.848 0 0 1 120.264 56.861 A 10.551 10.551 0 0 1 120.805 56.347 A 8.869 8.869 0 0 1 123.389 54.736 Q 125.098 54.053 126.611 54.053 A 9.53 9.53 0 0 1 126.643 54.053 Q 127.138 54.055 127.582 54.108 A 5.976 5.976 0 0 1 128.442 54.273 A 10.598 10.598 0 0 1 128.555 54.304 Q 129.289 54.513 129.834 54.785 Q 130.205 54.971 130.478 55.146 A 3.702 3.702 0 0 1 130.762 55.347 A 18.894 18.894 0 0 1 130.879 55.439 Q 131.121 55.633 131.201 55.713 A 1.819 1.819 0 0 0 131.743 56.092 A 1.872 1.872 0 0 0 132.52 56.25 Q 133.252 56.25 133.789 55.689 A 2.349 2.349 0 0 0 133.824 55.651 A 1.807 1.807 0 0 0 134.326 54.395 A 1.803 1.803 0 0 0 134.124 53.575 A 2.555 2.555 0 0 0 133.789 53.076 Q 133.746 53.034 133.367 52.711 A 123.791 123.791 0 0 0 133.252 52.612 A 3.846 3.846 0 0 0 133.241 52.603 Q 132.754 52.192 131.86 51.709 A 9.375 9.375 0 0 0 131.599 51.573 Q 130.779 51.162 129.688 50.806 A 8.016 8.016 0 0 0 128.616 50.537 A 9.649 9.649 0 0 0 126.904 50.391 A 11.083 11.083 0 0 0 124.761 50.605 A 13.892 13.892 0 0 0 122.241 51.367 Q 119.824 52.344 117.822 54.297 A 14.001 14.001 0 0 0 116.206 56.188 A 16.963 16.963 0 0 0 114.526 59.155 A 14.442 14.442 0 0 0 113.517 62.497 A 19.112 19.112 0 0 0 113.232 65.869 Q 113.232 67.774 113.794 69.385 A 9.848 9.848 0 0 0 113.961 69.83 A 8.468 8.468 0 0 0 115.381 72.193 Q 116.406 73.389 117.871 74.048 Q 119.336 74.707 121.143 74.707 A 6.951 6.951 0 0 0 123.886 74.123 A 9.832 9.832 0 0 0 125.732 73.071 A 12.903 12.903 0 0 0 127.744 71.286 A 15.95 15.95 0 0 0 129.688 68.653 A 12.381 12.381 0 0 0 129.939 69.362 A 10.286 10.286 0 0 0 132.495 73.194 A 6.5 6.5 0 0 0 134.724 74.576 A 7.323 7.323 0 0 0 137.256 75 A 8.057 8.057 0 0 0 141.064 74.048 A 15.449 15.449 0 0 0 144.434 71.631 A 22.31 22.31 0 0 0 147.266 68.408 A 50.273 50.273 0 0 0 148.245 67.004 Z M 67.969 43.408 L 66.846 43.408 A 4.214 4.214 0 0 1 66.457 43.391 A 3.413 3.413 0 0 1 66.211 43.36 A 68.484 68.484 0 0 1 61.898 52.025 A 54.276 54.276 0 0 1 57.837 57.959 A 59.329 59.329 0 0 1 52.17 64.208 A 48.052 48.052 0 0 1 47.485 68.14 A 43.631 43.631 0 0 1 40.327 72.439 A 37.158 37.158 0 0 1 36.206 74.097 A 38.522 38.522 0 0 1 29.843 75.656 A 31.409 31.409 0 0 1 25.098 76.026 A 34.533 34.533 0 0 1 18.864 75.483 A 28.648 28.648 0 0 1 14.966 74.487 A 25.15 25.15 0 0 1 9.763 72.096 A 21.515 21.515 0 0 1 7.031 70.117 A 19.775 19.775 0 0 1 1.855 63.257 A 20.311 20.311 0 0 1 0.123 56.753 A 24.912 24.912 0 0 1 0 54.248 A 29.239 29.239 0 0 1 0.947 47.001 A 36.141 36.141 0 0 1 2.026 43.53 Q 4.053 37.988 8.057 32.276 A 61.11 61.11 0 0 1 16.504 22.632 Q 21.143 18.36 26.245 15.137 A 72.958 72.958 0 0 1 36.768 9.619 A 86.168 86.168 0 0 1 46.866 6.046 A 79.069 79.069 0 0 1 47.534 5.86 A 78.422 78.422 0 0 1 56.061 4.011 A 70.29 70.29 0 0 1 57.983 3.736 A 81.183 81.183 0 0 1 64.049 3.173 A 66.204 66.204 0 0 1 67.578 3.076 Q 71.24 3.076 74.561 3.32 A 76.256 76.256 0 0 1 79.376 3.824 A 67.41 67.41 0 0 1 80.908 4.053 Q 82.354 2.447 83.337 1.583 A 10.895 10.895 0 0 1 83.74 1.245 A 215.605 215.605 0 0 1 83.994 1.043 Q 84.833 0.379 84.961 0.293 A 3.559 3.559 0 0 1 85.338 0.129 Q 85.527 0.061 85.699 0.029 A 1.559 1.559 0 0 1 85.986 0 A 2.023 2.023 0 0 1 87.207 0.391 A 1.262 1.262 0 0 1 87.734 1.315 A 1.816 1.816 0 0 1 87.744 1.514 A 2.29 2.29 0 0 1 87.557 2.449 A 2.209 2.209 0 0 1 87.061 3.15 A 462.55 462.55 0 0 1 86.688 3.508 Q 86.273 3.908 85.728 4.431 A 1542.747 1542.747 0 0 1 85.205 4.932 Q 91.713 6.532 95.993 9.311 A 20.872 20.872 0 0 1 98.877 11.548 A 14.277 14.277 0 0 1 103.603 21.857 A 17.421 17.421 0 0 1 103.613 22.461 A 18.601 18.601 0 0 1 103.285 26.029 A 14.789 14.789 0 0 1 102.441 28.858 Q 101.27 31.69 99.243 33.838 A 21.021 21.021 0 0 1 94.843 37.373 A 23.549 23.549 0 0 1 94.507 37.573 Q 91.797 39.16 88.77 40.235 Q 92.969 41.406 95.923 42.92 A 35.512 35.512 0 0 1 98.33 44.268 Q 99.54 45.012 100.54 45.783 A 20.68 20.68 0 0 1 100.903 46.069 Q 102.826 47.621 103.979 49.239 A 11.694 11.694 0 0 1 104.102 49.414 Q 105.273 51.123 105.908 52.686 Q 106.522 54.196 106.702 55.502 A 8.558 8.558 0 0 1 106.714 55.591 A 25.971 25.971 0 0 1 106.818 56.54 Q 106.858 56.98 106.874 57.364 A 11.889 11.889 0 0 1 106.885 57.861 A 15.444 15.444 0 0 1 106.52 61.286 A 12.545 12.545 0 0 1 105.591 63.965 A 15.821 15.821 0 0 1 102.1 68.701 A 20.425 20.425 0 0 1 97.712 71.804 A 23.241 23.241 0 0 1 96.997 72.168 A 36.9 36.9 0 0 1 90.918 74.487 Q 87.744 75.391 84.424 75.806 A 54.325 54.325 0 0 1 80.407 76.162 A 45.616 45.616 0 0 1 78.125 76.221 A 52.351 52.351 0 0 1 70.06 75.576 A 59.488 59.488 0 0 1 68.14 75.244 A 51.23 51.23 0 0 1 59.77 72.882 A 58.695 58.695 0 0 1 57.715 72.07 Q 56.543 71.582 56.543 70.361 A 1.906 1.906 0 0 1 56.651 69.707 A 1.655 1.655 0 0 1 57.129 69.019 A 2.213 2.213 0 0 1 57.65 68.673 A 1.752 1.752 0 0 1 58.398 68.506 A 1.828 1.828 0 0 1 58.787 68.55 A 2.484 2.484 0 0 1 59.131 68.653 A 49.823 49.823 0 0 0 68.457 71.533 A 47.987 47.987 0 0 0 78.076 72.51 A 57.497 57.497 0 0 0 83.126 72.3 Q 86.592 71.994 89.404 71.24 Q 94.141 69.971 97.192 67.896 A 17.136 17.136 0 0 0 99.559 65.977 A 12.325 12.325 0 0 0 101.709 63.208 A 11.662 11.662 0 0 0 102.883 60.288 A 9.922 9.922 0 0 0 103.174 57.91 Q 103.174 54.932 101.538 52.393 A 14.226 14.226 0 0 0 99.114 49.567 A 18.851 18.851 0 0 0 96.899 47.852 A 26.177 26.177 0 0 0 93.597 45.996 Q 91.853 45.168 89.828 44.478 A 41.666 41.666 0 0 0 89.697 44.434 A 45.314 45.314 0 0 0 84.384 43.01 A 57.24 57.24 0 0 0 80.371 42.334 A 70.345 70.345 0 0 1 74.825 43.08 A 63.226 63.226 0 0 1 73.828 43.164 A 87.136 87.136 0 0 1 70.776 43.347 A 67.533 67.533 0 0 1 67.969 43.408 Z M 78.223 7.422 Q 75.732 7.08 73.096 6.934 A 96.393 96.393 0 0 0 69.003 6.796 A 109.756 109.756 0 0 0 67.578 6.787 A 65.458 65.458 0 0 0 61.997 7.035 A 79.147 79.147 0 0 0 58.447 7.422 A 75.059 75.059 0 0 0 50.116 9.015 A 84.314 84.314 0 0 0 48.535 9.424 Q 43.457 10.791 38.306 12.964 A 69.801 69.801 0 0 0 28.296 18.189 A 63.341 63.341 0 0 0 19.043 25.293 A 58.522 58.522 0 0 0 11.035 34.424 A 50.088 50.088 0 0 0 7.654 39.882 A 38.879 38.879 0 0 0 5.518 44.629 A 31.396 31.396 0 0 0 4.097 49.686 A 24.391 24.391 0 0 0 3.662 54.199 A 20.16 20.16 0 0 0 4.096 58.465 A 16.37 16.37 0 0 0 5.2 61.817 A 15.654 15.654 0 0 0 9.57 67.505 A 19.003 19.003 0 0 0 14.108 70.236 A 23.372 23.372 0 0 0 16.357 71.069 Q 20.313 72.315 25.098 72.315 Q 29.883 72.315 35.059 70.581 A 35.619 35.619 0 0 0 42.373 67.131 A 42.625 42.625 0 0 0 45.166 65.259 A 46.056 46.056 0 0 0 51.14 60.029 A 57.743 57.743 0 0 0 54.541 56.177 Q 58.984 50.684 62.305 43.115 A 3.324 3.324 0 0 1 61.244 42.935 A 4.507 4.507 0 0 1 60.498 42.603 Q 59.57 42.09 59.57 40.967 A 1.889 1.889 0 0 1 59.719 40.203 Q 59.915 39.753 60.374 39.456 A 2.497 2.497 0 0 1 60.693 39.282 Q 61.627 38.856 63.439 38.548 A 29.361 29.361 0 0 1 64.209 38.428 A 770.485 770.485 0 0 1 66.895 30.42 A 116.296 116.296 0 0 1 69.922 22.51 Q 71.582 18.604 73.584 14.819 A 60.716 60.716 0 0 1 78.223 7.422 Z M 80.42 38.623 A 47.906 47.906 0 0 0 83.992 37.827 A 53.772 53.772 0 0 0 84.839 37.598 A 38.725 38.725 0 0 0 89.282 36.06 Q 91.455 35.156 93.408 33.911 A 15.133 15.133 0 0 0 96.802 30.982 A 13.763 13.763 0 0 0 99.097 27.197 Q 99.951 25.098 99.951 22.412 A 10.822 10.822 0 0 0 96.351 14.183 A 14.503 14.503 0 0 0 95.41 13.379 A 21.239 21.239 0 0 0 91.259 10.877 Q 89.173 9.904 86.622 9.149 A 49.045 49.045 0 0 0 82.373 8.106 A 53.265 53.265 0 0 0 78.737 13.223 A 60.926 60.926 0 0 0 77.783 14.795 A 85.834 85.834 0 0 0 73.828 22.388 A 98.311 98.311 0 0 0 70.581 30.347 A 83.793 83.793 0 0 0 68.775 35.999 A 72.158 72.158 0 0 0 68.213 38.135 A 41.055 41.055 0 0 1 69.153 38.098 A 32.122 32.122 0 0 1 70.02 38.086 L 71.436 38.086 A 67.772 67.772 0 0 1 73.425 38.117 A 86.985 86.985 0 0 1 75.586 38.208 A 74.626 74.626 0 0 1 77.917 38.373 A 92.96 92.96 0 0 1 80.42 38.623 Z M 215.332 41.016 A 121.998 121.998 0 0 0 215.414 45.566 A 108.129 108.129 0 0 0 215.479 47.022 Q 215.625 49.903 215.869 52.539 A 106.366 106.366 0 0 0 218.835 46.318 A 120.375 120.375 0 0 0 219.775 44.116 A 103.429 103.429 0 0 0 223.047 35.083 Q 224.463 30.518 225.317 26.001 A 49.23 49.23 0 0 0 226.071 20.252 A 41.551 41.551 0 0 0 226.172 17.383 Q 226.172 12.951 225.623 10.454 A 9.91 9.91 0 0 0 225.244 9.131 A 7.386 7.386 0 0 0 224.808 8.161 Q 224.192 7.037 223.364 6.744 A 1.815 1.815 0 0 0 222.754 6.641 Q 221.765 6.641 220.843 7.959 A 6.608 6.608 0 0 0 220.776 8.057 A 11.087 11.087 0 0 0 220.094 9.235 Q 219.771 9.873 219.463 10.641 A 25.597 25.597 0 0 0 218.994 11.914 A 38.309 38.309 0 0 0 218.296 14.219 Q 217.865 15.808 217.48 17.676 A 82.5 82.5 0 0 0 216.712 22.017 A 99.273 99.273 0 0 0 216.333 24.805 A 137.207 137.207 0 0 0 215.747 30.71 A 154.776 154.776 0 0 0 215.601 32.764 A 127.769 127.769 0 0 0 215.332 41.016 Z M 291.748 52.002 Q 293.799 47.51 295.483 43.237 A 88.999 88.999 0 0 0 298.364 34.717 Q 299.561 30.469 300.244 26.099 A 58.113 58.113 0 0 0 300.917 18.171 A 64.694 64.694 0 0 0 300.928 16.992 Q 300.928 16.24 300.86 14.628 A 168.917 168.917 0 0 0 300.855 14.502 A 21.494 21.494 0 0 0 300.415 11.035 A 11.761 11.761 0 0 0 299.92 9.304 A 9.14 9.14 0 0 0 299.292 7.959 A 3.048 3.048 0 0 0 298.745 7.25 A 2.216 2.216 0 0 0 297.168 6.641 A 1.616 1.616 0 0 0 296.124 7.035 Q 295.87 7.243 295.638 7.56 A 4.614 4.614 0 0 0 295.313 8.081 A 10.549 10.549 0 0 0 294.776 9.249 Q 294.548 9.828 294.341 10.513 A 24.982 24.982 0 0 0 293.945 11.987 A 41.126 41.126 0 0 0 293.47 14.299 Q 293.188 15.885 292.969 17.725 Q 292.578 20.996 292.334 24.658 A 215.606 215.606 0 0 0 291.968 32.178 Q 291.846 36.035 291.797 39.673 A 563.626 563.626 0 0 0 291.76 43.195 A 459.374 459.374 0 0 0 291.748 46.485 L 291.748 52.002 Z M 271.436 89.649 A 48.484 48.484 0 0 0 267.578 95.978 A 53.609 53.609 0 0 0 267.285 96.558 A 64.04 64.04 0 0 0 264.111 104.102 A 57.789 57.789 0 0 0 262.532 109.463 A 50.022 50.022 0 0 0 262.085 111.499 A 41.576 41.576 0 0 0 261.601 114.495 Q 261.419 115.983 261.385 117.314 A 23.634 23.634 0 0 0 261.377 117.92 Q 261.377 119.707 261.687 120.777 A 4.964 4.964 0 0 0 261.694 120.801 A 7.364 7.364 0 0 0 261.93 121.482 Q 262.171 122.077 262.476 122.461 A 2.897 2.897 0 0 0 262.861 122.866 Q 263.125 123.092 263.417 123.211 A 1.777 1.777 0 0 0 263.501 123.242 A 3.775 3.775 0 0 0 264.011 123.383 A 2.793 2.793 0 0 0 264.551 123.438 A 3.397 3.397 0 0 0 266.937 122.469 A 4.648 4.648 0 0 0 267.188 122.217 Q 268.311 120.996 269.092 118.97 A 22.467 22.467 0 0 0 269.8 116.791 Q 270.112 115.643 270.354 114.348 A 35.782 35.782 0 0 0 270.361 114.307 A 57.017 57.017 0 0 0 271.094 108.862 A 108.412 108.412 0 0 0 271.436 103.272 A 167.068 167.068 0 0 0 271.509 100.598 A 129.031 129.031 0 0 0 271.533 98.145 L 271.533 93.945 A 96.803 96.803 0 0 0 271.436 89.649 Z M 428.223 89.649 A 48.484 48.484 0 0 0 424.365 95.978 A 53.609 53.609 0 0 0 424.072 96.558 A 64.04 64.04 0 0 0 420.898 104.102 A 57.789 57.789 0 0 0 419.319 109.463 A 50.022 50.022 0 0 0 418.872 111.499 A 41.576 41.576 0 0 0 418.388 114.495 Q 418.206 115.983 418.172 117.314 A 23.634 23.634 0 0 0 418.164 117.92 Q 418.164 119.707 418.474 120.777 A 4.964 4.964 0 0 0 418.481 120.801 A 7.364 7.364 0 0 0 418.717 121.482 Q 418.958 122.077 419.263 122.461 A 2.897 2.897 0 0 0 419.648 122.866 Q 419.913 123.092 420.204 123.211 A 1.777 1.777 0 0 0 420.288 123.242 A 3.775 3.775 0 0 0 420.798 123.383 A 2.793 2.793 0 0 0 421.338 123.438 A 3.397 3.397 0 0 0 423.724 122.469 A 4.648 4.648 0 0 0 423.975 122.217 Q 425.098 120.996 425.879 118.97 A 22.467 22.467 0 0 0 426.587 116.791 Q 426.899 115.643 427.141 114.348 A 35.782 35.782 0 0 0 427.148 114.307 A 57.017 57.017 0 0 0 427.881 108.862 A 108.412 108.412 0 0 0 428.223 103.272 A 167.068 167.068 0 0 0 428.296 100.598 A 129.031 129.031 0 0 0 428.32 98.145 L 428.32 93.945 A 96.803 96.803 0 0 0 428.223 89.649 Z M 334.717 27.002 L 328.955 27.002 Q 328.272 30.029 327.856 34.497 Q 327.571 37.569 327.482 41.552 A 170.518 170.518 0 0 0 327.441 45.361 A 114.982 114.982 0 0 0 327.454 47.072 Q 327.49 49.525 327.636 51.336 A 42.999 42.999 0 0 0 327.637 51.343 Q 327.832 53.76 328.223 55.713 A 61.238 61.238 0 0 0 330.19 50.816 A 71.464 71.464 0 0 0 330.884 48.755 A 87.593 87.593 0 0 0 332.935 41.211 A 80.34 80.34 0 0 0 334.224 33.969 A 73.991 73.991 0 0 0 334.253 33.74 A 61.781 61.781 0 0 0 334.601 30.225 A 46.99 46.99 0 0 0 334.717 27.002 Z M 243.956 37.887 A 4.376 4.376 0 0 0 244.434 35.84 A 4.997 4.997 0 0 0 244.433 35.768 A 4.374 4.374 0 0 0 244.092 34.107 Q 243.75 33.301 243.14 32.691 Q 242.529 32.08 241.724 31.738 Q 240.918 31.397 239.99 31.397 A 4.997 4.997 0 0 0 239.918 31.397 A 4.374 4.374 0 0 0 238.257 31.738 Q 237.451 32.08 236.841 32.691 Q 236.23 33.301 235.889 34.107 Q 235.547 34.912 235.547 35.84 A 5.282 5.282 0 0 0 235.547 35.898 A 4.28 4.28 0 0 0 236.841 38.989 A 4.469 4.469 0 0 0 237.943 39.806 A 4.376 4.376 0 0 0 239.99 40.283 A 5.282 5.282 0 0 0 240.048 40.283 A 4.28 4.28 0 0 0 243.14 38.989 A 4.469 4.469 0 0 0 243.956 37.887 Z M 356.261 37.887 A 4.376 4.376 0 0 0 356.738 35.84 A 4.997 4.997 0 0 0 356.738 35.768 A 4.374 4.374 0 0 0 356.397 34.107 Q 356.055 33.301 355.444 32.691 Q 354.834 32.08 354.028 31.738 Q 353.223 31.397 352.295 31.397 A 4.997 4.997 0 0 0 352.223 31.397 A 4.374 4.374 0 0 0 350.562 31.738 Q 349.756 32.08 349.146 32.691 Q 348.535 33.301 348.193 34.107 Q 347.852 34.912 347.852 35.84 A 5.282 5.282 0 0 0 347.852 35.898 A 4.28 4.28 0 0 0 349.146 38.989 A 4.469 4.469 0 0 0 350.248 39.806 A 4.376 4.376 0 0 0 352.295 40.283 A 5.282 5.282 0 0 0 352.353 40.283 A 4.28 4.28 0 0 0 355.444 38.989 A 4.469 4.469 0 0 0 356.261 37.887 Z M 329.834 23.584 L 334.522 23.584 Q 334.284 21.592 333.84 20.429 A 6.173 6.173 0 0 0 333.813 20.361 Q 333.35 19.19 332.764 19.19 A 0.626 0.626 0 0 0 332.504 19.256 Q 332.149 19.421 331.629 19.991 A 8.741 8.741 0 0 0 331.494 20.142 A 4.604 4.604 0 0 0 331.027 20.799 Q 330.431 21.794 329.834 23.584 Z M 241.699 35.84 A 1.631 1.631 0 0 0 241.219 34.677 A 2.141 2.141 0 0 0 241.187 34.644 A 1.787 1.787 0 0 0 240.659 34.271 A 1.606 1.606 0 0 0 239.99 34.131 Q 239.307 34.131 238.818 34.644 A 1.68 1.68 0 0 0 238.33 35.84 A 1.596 1.596 0 0 0 238.803 36.997 A 1.96 1.96 0 0 0 238.818 37.012 Q 239.307 37.5 239.99 37.5 A 1.68 1.68 0 0 0 241.187 37.012 A 1.66 1.66 0 0 0 241.571 36.475 A 1.566 1.566 0 0 0 241.699 35.84 Z M 354.004 35.84 A 1.631 1.631 0 0 0 353.524 34.677 A 2.141 2.141 0 0 0 353.491 34.644 A 1.787 1.787 0 0 0 352.964 34.271 A 1.606 1.606 0 0 0 352.295 34.131 Q 351.611 34.131 351.123 34.644 A 1.68 1.68 0 0 0 350.635 35.84 A 1.596 1.596 0 0 0 351.108 36.997 A 1.96 1.96 0 0 0 351.123 37.012 Q 351.611 37.5 352.295 37.5 A 1.68 1.68 0 0 0 353.491 37.012 A 1.66 1.66 0 0 0 353.876 36.475 A 1.566 1.566 0 0 0 354.004 35.84 Z M 329.004 59.278 L 329.004 59.229 L 329.004 59.278 Z" vector-effect="non-scaling-stroke"/></g></svg>